<svg xmlns="http://www.w3.org/2000/svg" width="139" height="16.028" viewBox="0 0 139 16.028"><defs><style>.a,.b{fill:#1a237e;}.b{fill-rule:evenodd;}.c{fill:#5773ff;}.d{fill:#fff;}</style></defs><g transform="translate(-110 -63)"><g transform="translate(-209.202 -1856.86)"><rect class="a" width="3.511" height="15.986" transform="translate(338.62 1919.888)"/><path class="b" d="M1148.483,1945.382h-5.74c-4.749,0-8.958-2.777-8.958-7.948,0-5.848,4.3-8.038,9.431-8.038h5.267v7.471h-3.511v-4.22H1142.9c-2.971,0-5.469,1.467-5.469,4.606,0,3.635,2.453,4.877,5.717,4.877h5.334Z" transform="translate(-786.978 -9.508)"/><path class="b" d="M2174.323,1945.389h3.511v-6.909h6.82v6.909h3.511V1929.4h-3.511v5.961h-6.82V1929.4h-3.511Z" transform="translate(-1787.87 -9.514)"/><path class="b" d="M1698.978,1929.4h5.74c4.749,0,8.958,2.777,8.958,7.948,0,5.849-4.3,8.038-9.431,8.038h-5.267v-7.471h3.511v4.219h2.071c2.971,0,5.469-1.467,5.469-4.606,0-3.635-2.453-4.877-5.717-4.877h-5.334Z" transform="translate(-1331.787 -9.508)"/><path class="b" d="M333.261,1925.979H327.34v3.093h2.715v2.471a6.506,6.506,0,0,1-3.143.752,4.9,4.9,0,0,1,0-9.8,4.644,4.644,0,0,1,3.677,1.439l2.351-2.578a8.554,8.554,0,0,0-6.028-1.955c-4.724,0-8.166,3.115-8.166,7.992s3.442,7.992,8.166,7.992a13.518,13.518,0,0,0,6.349-1.461Z" transform="translate(0.456 0.498)"/></g><g transform="translate(-36 -62)"><rect class="c" width="48" height="16" rx="2" transform="translate(237 125)"/><path class="d" d="M-40.562-5.469a2.059,2.059,0,0,1,1.173.723,1.976,1.976,0,0,1,.425,1.258,2.142,2.142,0,0,1-.808,1.829,4,4,0,0,1-2.418.608h-2.674V-9.3h2.747a3.723,3.723,0,0,1,2.16.513,1.768,1.768,0,0,1,.72,1.54,1.841,1.841,0,0,1-.343,1.115A1.83,1.83,0,0,1-40.562-5.469Zm-3.172-.4h.936a3.714,3.714,0,0,0,1.954-.349,1.144,1.144,0,0,0,.5-.993A.943.943,0,0,0-40.669-8a1.485,1.485,0,0,0-.741-.313,8.113,8.113,0,0,0-1.066-.058h-1.258Zm0,3.883H-42.5a3.382,3.382,0,0,0,1.878-.377,1.271,1.271,0,0,0,.523-1.1,1.287,1.287,0,0,0-.513-1.1,3.354,3.354,0,0,0-1.887-.38h-1.234Zm10.026-7.474a4.207,4.207,0,0,1,3.059,1.252,4.088,4.088,0,0,1,1.273,3.026,4.117,4.117,0,0,1-1.27,3.041A4.2,4.2,0,0,1-33.708-.887a4.163,4.163,0,0,1-3.044-1.264,4.126,4.126,0,0,1-1.27-3.032,4.175,4.175,0,0,1,.58-2.142A4.222,4.222,0,0,1-35.859-8.89,4.275,4.275,0,0,1-33.708-9.461Zm0,7.541a2.941,2.941,0,0,0,2.23-.954,3.244,3.244,0,0,0,.9-2.309,3.213,3.213,0,0,0-.9-2.3,2.954,2.954,0,0,0-2.23-.945,2.926,2.926,0,0,0-2.215.948,3.221,3.221,0,0,0-.9,2.3,3.247,3.247,0,0,0,.9,2.306A2.916,2.916,0,0,0-33.708-1.92Zm9.595-7.541a4.207,4.207,0,0,1,3.059,1.252,4.088,4.088,0,0,1,1.273,3.026,4.117,4.117,0,0,1-1.27,3.041A4.2,4.2,0,0,1-24.113-.887a4.163,4.163,0,0,1-3.044-1.264,4.126,4.126,0,0,1-1.27-3.032,4.175,4.175,0,0,1,.58-2.142A4.222,4.222,0,0,1-26.264-8.89,4.275,4.275,0,0,1-24.113-9.461Zm0,7.541a2.941,2.941,0,0,0,2.23-.954,3.244,3.244,0,0,0,.9-2.309,3.213,3.213,0,0,0-.9-2.3,2.954,2.954,0,0,0-2.23-.945,2.927,2.927,0,0,0-2.215.948,3.221,3.221,0,0,0-.9,2.3,3.247,3.247,0,0,0,.9,2.306A2.916,2.916,0,0,0-24.113-1.92Zm12.736.869H-13l-4.168-3.992v3.992H-18.3V-9.3h1.13v3.761L-13.443-9.3h1.477l-3.992,3.968Zm5-6.866A3.2,3.2,0,0,0-8.12-8.483,1.837,1.837,0,0,0-9.2-8.176a.974.974,0,0,0-.437.842,1.156,1.156,0,0,0,.3.76,4.509,4.509,0,0,0,1.489.863A11.845,11.845,0,0,1-6.6-5.1a2.579,2.579,0,0,1,.814.763,2.057,2.057,0,0,1,.337,1.206A1.946,1.946,0,0,1-6.24-1.477,3.333,3.333,0,0,1-8.29-.887a4.715,4.715,0,0,1-1.34-.219,4.957,4.957,0,0,1-1.285-.577l.608-.9A3.666,3.666,0,0,0-8.29-1.9,2.2,2.2,0,0,0-7-2.209a1.091,1.091,0,0,0,.431-.945,1.154,1.154,0,0,0-.292-.76,4.29,4.29,0,0,0-1.47-.832,10.438,10.438,0,0,1-1.249-.592,2.564,2.564,0,0,1-.817-.763,2.1,2.1,0,0,1-.34-1.234A1.852,1.852,0,0,1-9.98-8.884,2.967,2.967,0,0,1-8.12-9.461a4.476,4.476,0,0,1,2.339.681Z" transform="translate(286.309 138.016)"/></g></g></svg>