<svg xmlns="http://www.w3.org/2000/svg" width="16" height="16" viewBox="0 0 16 16"><defs><style>.a{fill:#1c1c1c;}.b{fill:#229f5f;}</style></defs><g transform="translate(0 0)"><path class="a" d="M41.566,9.433h0a.4.4,0,0,0-.028-.079l-.011-.018a.268.268,0,0,0-.05-.07l-3.589-3.59a.453.453,0,0,0-.07-.051L37.8,5.615a.318.318,0,0,0-.143-.035H30.936A1.128,1.128,0,0,0,29.81,6.708V20.256a1.128,1.128,0,0,0,1.126,1.126h9.509a1.128,1.128,0,0,0,1.126-1.126V9.494A.339.339,0,0,0,41.566,9.433Zm-1.1-.265h-1.95a.531.531,0,0,1-.531-.529V6.692Zm-.018,11.556H30.936a.478.478,0,0,1-.478-.476V6.708a.48.48,0,0,1,.478-.478h6.4V8.639a1.183,1.183,0,0,0,1.182,1.18h2.409V20.256a.478.478,0,0,1-.478.469Z" transform="translate(-29.81 -5.58)"/><path class="a" d="M40.785,42.55h7.076a.325.325,0,0,0,0-.65H40.785a.325.325,0,0,0,0,.65Z" transform="translate(-38.503 -35.226)"/><path class="a" d="M48.187,53.555a.325.325,0,0,0-.325-.325H40.785a.325.325,0,1,0,0,.65h7.076a.325.325,0,0,0,.325-.325Z" transform="translate(-38.503 -44.474)"/></g><ellipse class="b" cx="5.136" cy="5.2" rx="5.136" ry="5.2" transform="translate(5.728 5.6)"/></svg>