<svg width="24" height="24" viewBox="0 0 24 24" fill="none" xmlns="http://www.w3.org/2000/svg">
<path fill-rule="evenodd" clip-rule="evenodd" d="M17 7C17 9.7625 14.7625 12 12 12C9.2375 12 7 9.7625 7 7C7 4.2375 9.2375 2 12 2C14.7625 2 17 4.2375 17 7ZM14.5 7C14.5 5.625 13.375 4.5 12 4.5C10.625 4.5 9.5 5.625 9.5 7C9.5 8.375 10.625 9.5 12 9.5C13.375 9.5 14.5 8.375 14.5 7Z" fill="currentColor"/>
<path d="M12 17C8.6375 17 4.775 18.6 4.5 19.5H12.4375C12.7625 20.4375 13.275 21.275 13.925 22H2V19.5C2 16.0875 9.025 14.3875 12.4375 14.5125C12.1625 15.2875 12 16.125 12 17Z" fill="currentColor"/>
<path d="M19.9205 15.5409H22C21.9335 14.9769 21.7816 14.4762 21.5442 14.039C21.31 13.6017 21.0061 13.2326 20.6327 12.9316C20.2592 12.6274 19.8303 12.3961 19.346 12.2376C18.8649 12.0792 18.3427 12 17.7793 12C16.9247 12 16.1556 12.1965 15.4719 12.5894C14.7883 12.9791 14.247 13.5463 13.8482 14.2909C13.4494 15.0355 13.25 15.9385 13.25 17C13.25 18.0583 13.4462 18.9598 13.8387 19.7044C14.2344 20.449 14.7724 21.0177 15.4529 21.4106C16.1366 21.8035 16.9121 22 17.7793 22C18.4028 22 18.9615 21.9065 19.4552 21.7196C19.9522 21.5295 20.3795 21.2728 20.7371 20.9496C21.0979 20.6233 21.3844 20.2541 21.5964 19.8422C21.8117 19.4271 21.9462 18.9962 22 18.5494L19.9205 18.5399C19.873 18.7997 19.7876 19.0311 19.6641 19.2338C19.5439 19.4366 19.3919 19.6093 19.2084 19.7519C19.0248 19.8913 18.8143 19.9975 18.5769 20.0703C18.3427 20.1432 18.0879 20.1797 17.8125 20.1797C17.3219 20.1797 16.8899 20.0593 16.5164 19.8184C16.1429 19.5776 15.8517 19.2212 15.6428 18.749C15.4371 18.2769 15.3342 17.6939 15.3342 17C15.3342 16.3251 15.4371 15.7516 15.6428 15.2795C15.8486 14.8042 16.1382 14.443 16.5117 14.1958C16.8852 13.9455 17.3235 13.8203 17.8268 13.8203C18.1053 13.8203 18.3633 13.8599 18.6007 13.9392C18.8412 14.0184 19.0533 14.1324 19.2368 14.2814C19.4204 14.4303 19.5708 14.6109 19.6879 14.8232C19.805 15.0323 19.8825 15.2715 19.9205 15.5409Z" fill="currentColor"/>
</svg>
