<svg width="24" height="24" viewBox="0 0 24 24" fill="none" xmlns="http://www.w3.org/2000/svg">
<path d="M13 10L9 6L13 2L14.41 3.41L12.83 5H22.5L18.3 12.97C17.96 13.59 17.3 14 16.55 14H9.1L8 16H20V18H8C6.48 18 5.52 16.37 6.25 15.03L7.6 12.59L4 5H2V3H5.27L9.53 12H16.55L19.1929 7H12.83L14.42 8.59L13 10Z" fill="currentColor"/>
<path d="M6.01 21C6.01 19.9 6.9 19 8 19C9.1 19 10 19.9 10 21C10 22.1 9.1 23 8 23C6.9 23 6.01 22.1 6.01 21Z" fill="currentColor"/>
<path d="M16.01 21C16.01 19.9 16.9 19 18 19C19.1 19 20 19.9 20 21C20 22.1 19.1 23 18 23C16.9 23 16.01 22.1 16.01 21Z" fill="currentColor"/>
</svg>
