<svg width="24" height="24" viewBox="0 0 24 24" fill="none" xmlns="http://www.w3.org/2000/svg">
<path fill-rule="evenodd" clip-rule="evenodd" d="M17 7C17 9.7625 14.7625 12 12 12C9.2375 12 7 9.7625 7 7C7 4.2375 9.2375 2 12 2C14.7625 2 17 4.2375 17 7ZM14.5 7C14.5 5.625 13.375 4.5 12 4.5C10.625 4.5 9.5 5.625 9.5 7C9.5 8.375 10.625 9.5 12 9.5C13.375 9.5 14.5 8.375 14.5 7Z" fill="white"/>
<path d="M12 17C8.6375 17 4.775 18.6 4.5 19.5H12.4375C12.7625 20.4375 13.275 21.275 13.925 22H2V19.5C2 16.0875 9.025 14.3875 12.4375 14.5125C12.1625 15.2875 12 16.125 12 17Z" fill="white"/>
<path d="M17.5828 19.5977L15.3853 12H13.25L16.3886 22H18.8658L22 12H19.8691L17.6672 19.5977H17.5828Z" fill="white"/>
</svg>
