<svg xmlns="http://www.w3.org/2000/svg" width="15.913" height="16.5" viewBox="0 0 15.913 16.5"><defs><style>.a,.b{fill:none;stroke:gray;stroke-linecap:round;stroke-linejoin:round;stroke-width:0.5px;}.a,.c{fill-rule:evenodd;}.c{fill:#5773FF;}</style></defs><g transform="translate(-70.75 -54.75)"><path class="a" d="M144,291.391v-8.978L146.043,281l1.7.8v9.587" transform="translate(-71.413 -221.087)"/><path class="a" d="M316,60.717V57.891L319.565,55l1.7,1.717v5.457l1.761-1.13,1.478.761v8.5" transform="translate(-239.674)"/><line class="b" y2="14.826" transform="translate(79.304 55.478)"/><line class="b" y2="10.391" transform="translate(74.63 59.913)"/><line class="b" y2="8.13" transform="translate(81.587 62.174)"/><line class="b" y2="9.261" transform="translate(83.348 61.043)"/><path class="a" d="M71.022,759H86.413v.7H71Z" transform="translate(0 -688.696)"/><path class="c" d="M453,55.478V70.3h2.283V56.717L453.587,55Z" transform="translate(-373.696)"/><path class="c" d="M639,333v9.261h1.478l.022-8.5Z" transform="translate(-555.652 -271.957)"/><path class="c" d="M74.63,759H71.022l-.022.7H86.413V759H74.63Z" transform="translate(0 -688.696)"/><path class="c" d="M144,291.391h2.043V281L144,282.413Z" transform="translate(-71.413 -221.087)"/></g></svg>
