<svg xmlns="http://www.w3.org/2000/svg" width="15.999" height="15.999" viewBox="0 0 15.999 15.999"><defs><style>.a{fill:gray;}</style></defs><path class="a" d="M-1588,832a8.009,8.009,0,0,1-8-8,8.009,8.009,0,0,1,8-8,8.009,8.009,0,0,1,8,8A8.008,8.008,0,0,1-1588,832Zm-2.1-5.558h0l-.591.826a5.308,5.308,0,0,0,2.367.721v1.237h.768v-1.26a2.787,2.787,0,0,0,1.608-.66,1.8,1.8,0,0,0,.577-1.38,1.928,1.928,0,0,0-.454-1.292,4.574,4.574,0,0,0-1.732-1.04V821a3.614,3.614,0,0,1,1.3.491l.574-.79a4.513,4.513,0,0,0-1.869-.627v-.733h-.768v.733a2.745,2.745,0,0,0-1.585.633,1.706,1.706,0,0,0-.6,1.324,1.949,1.949,0,0,0,.474,1.328,4.413,4.413,0,0,0,1.711,1.017v2.671a3.745,3.745,0,0,1-1.776-.609Zm2.543.574h0V824.69a2.415,2.415,0,0,1,.835.547.992.992,0,0,1,.278.677.982.982,0,0,1-.278.727,1.559,1.559,0,0,1-.834.374Zm-.768-3.744h0a2.565,2.565,0,0,1-.883-.571,1,1,0,0,1-.234-.665.879.879,0,0,1,.3-.673,1.538,1.538,0,0,1,.817-.357v2.267Z" transform="translate(1596 -816)"/></svg>