<svg xmlns="http://www.w3.org/2000/svg" width="221.027" height="130" viewBox="0 0 221.027 130"><defs><style>.a{fill:#fefafb;}.b{fill:#feeeee;}.c{fill:#fef1f4;}.d{fill:#fdeaee;}.e{fill:#fcdedf;}.f{fill:#f2596f;}</style></defs><g transform="translate(-2706.567 -4661.211)"><path class="a" d="M849.159-831.119a64.843,64.843,0,0,1-48.573-21.808h-7.529a5.157,5.157,0,0,1-5.157-5.157,5.158,5.158,0,0,1,5.157-5.156h1.709a5.459,5.459,0,0,0,5.46-5.46,5.453,5.453,0,0,0-1.6-3.861,5.453,5.453,0,0,0-3.122-1.549H768.252a5.156,5.156,0,0,1-5.157-5.157,5.156,5.156,0,0,1,5.157-5.157H791.4a5.455,5.455,0,0,0,2.51-4.6,5.451,5.451,0,0,0-1.6-3.859,5.5,5.5,0,0,0-1.581-1.1H743.723a5.157,5.157,0,0,1-5.156-5.157,5.156,5.156,0,0,1,5.156-5.157h52.793a5.459,5.459,0,0,0,5.46-5.459,5.451,5.451,0,0,0-1.6-3.862,5.483,5.483,0,0,0-1.21-.913H771.038a5.155,5.155,0,0,1-5.155-5.156,5.156,5.156,0,0,1,5.155-5.157h40.245l-2.487,3.068v66.624a9.685,9.685,0,0,0,9.683,9.684h59.266a9.684,9.684,0,0,0,9.682-9.684v-1.484l.134,0h13.232l-.061.079H906.5a5.156,5.156,0,0,1,5.157,5.156,5.156,5.156,0,0,1-5.157,5.156H890.835a64.741,64.741,0,0,1-41.676,15.119m38.268-35.822v-73.811a9.684,9.684,0,0,0-9.682-9.684H832.037L817.248-932.2a5.453,5.453,0,0,0-1.261-1.964A5.447,5.447,0,0,0,814-935.431h-20.94a5.158,5.158,0,0,1-5.157-5.156,5.157,5.157,0,0,1,5.157-5.155h14.119a64.739,64.739,0,0,1,41.982-15.376,64.837,64.837,0,0,1,48.553,21.786H906.5a5.156,5.156,0,0,1,5.157,5.157,5.157,5.157,0,0,1-5.157,5.157h-4.327a5.154,5.154,0,0,0-5.148,5.155,5.155,5.155,0,0,0,5.155,5.157h7.949c.025.066.048.134.072.2h20.548a5.156,5.156,0,0,1,5.156,5.157,5.155,5.155,0,0,1-5.156,5.155H907.795a5.3,5.3,0,0,0-5.291,5.3,5.3,5.3,0,0,0,5.068,5.294h46.866a5.157,5.157,0,0,1,5.156,5.156,5.156,5.156,0,0,1-5.156,5.157H902.177a5.155,5.155,0,0,0-5.155,5.157,5.153,5.153,0,0,0,3.484,4.876h28.011a5.158,5.158,0,0,1,5.157,5.157,5.158,5.158,0,0,1-5.157,5.157h-41.09" transform="translate(1968 5622.33)"/><path class="b" d="M950.155-939.42H904.447l-23.242,28.664v66.624a9.685,9.685,0,0,0,9.684,9.684h59.266a9.684,9.684,0,0,0,9.682-9.684v-85.6a9.683,9.683,0,0,0-9.682-9.684" transform="translate(1895.59 5611.315)"/><path class="c" d="M886.258-895.017h0l5.965-7.356h0l-5.965,7.356" transform="translate(1893.025 5592.508)"/><path class="d" d="M881.206-910.757l2.487-3.068h0l-2.487,3.068m8.452-10.424h0l14.789-18.241h0l-14.789,18.24" transform="translate(1895.59 5611.315)"/><path class="e" d="M894.763-910.756H881.206l2.487-3.068,5.965-7.356,14.789-18.24v18.98a9.685,9.685,0,0,1-9.684,9.684" transform="translate(1895.59 5611.315)"/><path class="f" d="M959.095-930.481h-.721v85.6a8.934,8.934,0,0,1-2.625,6.337,8.929,8.929,0,0,1-6.337,2.626H890.146a8.929,8.929,0,0,1-6.337-2.626,8.932,8.932,0,0,1-2.626-6.337v-66.369l22.864-28.2h45.364a8.929,8.929,0,0,1,6.337,2.626,8.934,8.934,0,0,1,2.625,6.338h1.441a10.4,10.4,0,0,0-10.4-10.4H903.36l-23.618,29.129v66.88a10.407,10.407,0,0,0,10.4,10.4h59.266a10.405,10.405,0,0,0,10.4-10.4v-85.6h-.72" transform="translate(1896.333 5612.059)"/><path class="f" d="M903.7-940.165h-.721v18.98a8.932,8.932,0,0,1-2.626,6.338,8.932,8.932,0,0,1-6.338,2.626H881.975l22.289-27.49-.559-.454h0l-.56-.454L879.9-911.955a.721.721,0,0,0-.091.764.721.721,0,0,0,.651.41H894.02a10.4,10.4,0,0,0,10.4-10.4v-18.98a.722.722,0,0,0-.48-.68.721.721,0,0,0-.8.226l.56.454" transform="translate(1896.333 5612.059)"/><path class="f" d="M936.519-842.291a17.713,17.713,0,0,1,12.431-5.071,17.716,17.716,0,0,1,12.432,5.071.72.72,0,0,0,1.019-.011.721.721,0,0,0-.011-1.019A19.151,19.151,0,0,0,948.95-848.8a19.151,19.151,0,0,0-13.439,5.482.721.721,0,0,0-.01,1.019.721.721,0,0,0,1.019.011" transform="translate(1868.132 5565.313)"/><path class="f" d="M924.225-806.614h35.41a.721.721,0,0,0,.721-.721.721.721,0,0,0-.721-.721h-35.41a.721.721,0,0,0-.721.721.721.721,0,0,0,.721.721" transform="translate(1874.117 5544.627)"/><path class="f" d="M893.8-779.6h65.5a.72.72,0,0,0,.72-.721.72.72,0,0,0-.72-.72H893.8a.721.721,0,0,0-.721.72.721.721,0,0,0,.721.721" transform="translate(1889.56 5530.915)"/><path class="f" d="M893.8-761.509h65.5a.721.721,0,0,0,.72-.721.72.72,0,0,0-.72-.721H893.8a.721.721,0,0,0-.721.721.721.721,0,0,0,.721.721" transform="translate(1889.56 5521.729)"/><path class="f" d="M928.551-868.232a1.791,1.791,0,0,1-1.792,1.791,1.791,1.791,0,0,1-1.792-1.791,1.792,1.792,0,0,1,1.792-1.791,1.792,1.792,0,0,1,1.792,1.791" transform="translate(1873.374 5576.085)"/><path class="f" d="M925.839-870.051a.9.9,0,0,0-.9.9.9.9,0,0,0,.9.9.9.9,0,0,0,.9-.9A.9.9,0,0,0,925.839-870.051Zm0,3.584a2.688,2.688,0,0,1-2.685-2.684,2.687,2.687,0,0,1,2.685-2.684,2.686,2.686,0,0,1,2.684,2.684,2.687,2.687,0,0,1-2.684,2.684" transform="translate(1874.295 5577.005)"/><path class="f" d="M994.931-868.232a1.791,1.791,0,0,1-1.791,1.791,1.791,1.791,0,0,1-1.792-1.791,1.792,1.792,0,0,1,1.792-1.791,1.792,1.792,0,0,1,1.791,1.791" transform="translate(1839.676 5576.085)"/><path class="f" d="M992.22-870.051a.9.9,0,0,0-.9.9.9.9,0,0,0,.9.9.9.9,0,0,0,.9-.9A.9.9,0,0,0,992.22-870.051Zm0,3.584a2.688,2.688,0,0,1-2.685-2.684,2.687,2.687,0,0,1,2.685-2.684,2.688,2.688,0,0,1,2.684,2.684,2.688,2.688,0,0,1-2.684,2.684" transform="translate(1840.596 5577.005)"/></g></svg>