<svg xmlns="http://www.w3.org/2000/svg" width="221.027" height="130" viewBox="0 0 221.027 130"><defs><style>.a{fill:#f8fcfa;}.b{fill:#eef9ef;}.c{fill:#f0faf1;}.d{fill:#4dbf7f;}</style></defs><g transform="translate(-63.087 -239.347)"><path class="a" d="M260.368-831.119A64.84,64.84,0,0,1,211.8-852.927h-7.53a5.157,5.157,0,0,1-5.156-5.157,5.157,5.157,0,0,1,5.156-5.156h1.709a5.459,5.459,0,0,0,5.46-5.46,5.452,5.452,0,0,0-1.6-3.861,5.453,5.453,0,0,0-3.123-1.549H179.46a5.156,5.156,0,0,1-5.156-5.156,5.156,5.156,0,0,1,5.156-5.156h23.146a5.456,5.456,0,0,0,2.51-4.6,5.453,5.453,0,0,0-1.6-3.859,5.49,5.49,0,0,0-1.581-1.1H154.933a5.156,5.156,0,0,1-5.156-5.157,5.156,5.156,0,0,1,5.156-5.157h52.792a5.459,5.459,0,0,0,5.459-5.459,5.45,5.45,0,0,0-1.6-3.862,5.5,5.5,0,0,0-1.211-.913h-28.13a5.156,5.156,0,0,1-5.155-5.156,5.157,5.157,0,0,1,5.155-5.157h40.245l-2.487,3.068v66.623a9.686,9.686,0,0,0,9.684,9.685h59.265a9.685,9.685,0,0,0,9.684-9.685v-1.484l.132,0H312l-.062.079h5.767a5.155,5.155,0,0,1,5.155,5.156,5.155,5.155,0,0,1-5.155,5.156H302.044a64.738,64.738,0,0,1-41.676,15.119m38.27-35.822v-73.811a9.685,9.685,0,0,0-9.684-9.684H243.247L228.456-932.2a5.453,5.453,0,0,0-1.26-1.964,5.46,5.46,0,0,0-1.989-1.272H204.266a5.157,5.157,0,0,1-5.156-5.156,5.156,5.156,0,0,1,5.156-5.155h14.121a64.736,64.736,0,0,1,41.982-15.376,64.836,64.836,0,0,1,48.553,21.786h8.787a5.155,5.155,0,0,1,5.155,5.156,5.156,5.156,0,0,1-5.155,5.157h-4.329a5.155,5.155,0,0,0-5.148,5.155,5.155,5.155,0,0,0,5.155,5.157h7.949c.024.066.048.134.072.2h20.549a5.157,5.157,0,0,1,5.157,5.157,5.156,5.156,0,0,1-5.157,5.155H319a5.3,5.3,0,0,0-5.29,5.3,5.3,5.3,0,0,0,5.067,5.294h46.866a5.156,5.156,0,0,1,5.157,5.156,5.156,5.156,0,0,1-5.157,5.157H313.386a5.156,5.156,0,0,0-5.155,5.157,5.154,5.154,0,0,0,3.485,4.876h28.01a5.158,5.158,0,0,1,5.157,5.156,5.157,5.157,0,0,1-5.157,5.157H298.638" transform="translate(-86.69 1200.466)"/><path class="b" d="M361.364-939.422H315.657l-23.241,28.665v66.623a9.686,9.686,0,0,0,9.684,9.685h59.265a9.685,9.685,0,0,0,9.684-9.685v-85.6a9.685,9.685,0,0,0-9.684-9.684" transform="translate(-159.1 1189.452)"/><path class="c" d="M305.973-910.757H292.415l23.241-28.665v18.98a9.685,9.685,0,0,1-9.684,9.684" transform="translate(-159.1 1189.452)"/><path class="d" d="M370.3-930.481h-.721v85.6a8.932,8.932,0,0,1-2.626,6.338,8.929,8.929,0,0,1-6.337,2.626H301.356a8.932,8.932,0,0,1-6.338-2.626,8.932,8.932,0,0,1-2.625-6.338v-66.369l22.864-28.2h45.364a8.929,8.929,0,0,1,6.337,2.626,8.932,8.932,0,0,1,2.626,6.338h1.441a10.405,10.405,0,0,0-10.4-10.4H314.57l-23.619,29.13v66.879a10.407,10.407,0,0,0,10.4,10.405h59.265a10.406,10.406,0,0,0,10.4-10.405v-85.6h-.72" transform="translate(-158.357 1190.195)"/><path class="d" d="M314.914-940.165h-.721v18.98a8.929,8.929,0,0,1-2.625,6.338,8.932,8.932,0,0,1-6.338,2.626H293.184l22.289-27.49-.559-.454h0l-.56-.454-23.242,28.664a.722.722,0,0,0-.091.764.721.721,0,0,0,.651.41H305.23a10.405,10.405,0,0,0,10.4-10.4v-18.98a.723.723,0,0,0-.48-.679.722.722,0,0,0-.8.226l.56.454" transform="translate(-158.357 1190.195)"/><path class="d" d="M372.587-848.6a17.7,17.7,0,0,1-12.431,5.071,17.7,17.7,0,0,1-12.431-5.071.721.721,0,0,0-1.019.01.721.721,0,0,0,.01,1.019,19.149,19.149,0,0,0,13.439,5.483,19.149,19.149,0,0,0,13.439-5.483.721.721,0,0,0,.011-1.019.721.721,0,0,0-1.02-.01" transform="translate(-186.557 1143.448)"/><path class="d" d="M335.436-806.614h35.41a.721.721,0,0,0,.72-.721.721.721,0,0,0-.72-.721h-35.41a.721.721,0,0,0-.721.721.721.721,0,0,0,.721.721" transform="translate(-180.574 1122.764)"/><path class="d" d="M305.014-779.6h65.495a.72.72,0,0,0,.721-.721.72.72,0,0,0-.721-.72H305.014a.72.72,0,0,0-.72.72.72.72,0,0,0,.72.721" transform="translate(-165.13 1109.051)"/><path class="d" d="M305.014-761.509h65.495a.721.721,0,0,0,.721-.721.72.72,0,0,0-.721-.721H305.014a.72.72,0,0,0-.72.721.721.721,0,0,0,.72.721" transform="translate(-165.13 1099.866)"/><path class="d" d="M339.762-868.232a1.792,1.792,0,0,1-1.792,1.791,1.791,1.791,0,0,1-1.791-1.791,1.792,1.792,0,0,1,1.791-1.791,1.793,1.793,0,0,1,1.792,1.791" transform="translate(-181.317 1154.221)"/><path class="d" d="M337.049-870.051a.9.9,0,0,0-.9.9.9.9,0,0,0,.9.9.9.9,0,0,0,.9-.9A.9.9,0,0,0,337.049-870.051Zm0,3.584a2.688,2.688,0,0,1-2.684-2.684,2.687,2.687,0,0,1,2.684-2.684,2.687,2.687,0,0,1,2.684,2.684,2.688,2.688,0,0,1-2.684,2.684" transform="translate(-180.396 1155.141)"/><path class="d" d="M406.142-868.232a1.792,1.792,0,0,1-1.791,1.791,1.792,1.792,0,0,1-1.793-1.791,1.793,1.793,0,0,1,1.793-1.791,1.792,1.792,0,0,1,1.791,1.791" transform="translate(-215.014 1154.221)"/><path class="d" d="M403.431-870.051a.9.9,0,0,0-.9.9.9.9,0,0,0,.9.9.9.9,0,0,0,.9-.9A.9.9,0,0,0,403.431-870.051Zm0,3.584a2.687,2.687,0,0,1-2.684-2.684,2.687,2.687,0,0,1,2.684-2.684,2.687,2.687,0,0,1,2.684,2.684,2.687,2.687,0,0,1-2.684,2.684" transform="translate(-214.095 1155.141)"/></g></svg>