<svg xmlns="http://www.w3.org/2000/svg" width="16" height="16" viewBox="0 0 16 16"><defs><style>.a{fill:#5773ff;}</style></defs><path class="a" d="M11.174,3.174a.906.906,0,0,0-.475.134l-1.172.72a.906.906,0,0,1-.474.134H9.027L7.652,4.124H7.627a.906.906,0,0,0-.8.475l-.655,1.21a.905.905,0,0,1-.366.366L4.6,6.83a.906.906,0,0,0-.475.822l.038,1.375a.906.906,0,0,1-.134.5L3.308,10.7a.906.906,0,0,0,0,.949l.721,1.172a.906.906,0,0,1,.134.5L4.124,14.7a.906.906,0,0,0,.475.822l1.21.655a.905.905,0,0,1,.366.366l.655,1.21a.906.906,0,0,0,.8.475h.025l1.375-.038h.025a.906.906,0,0,1,.474.134l1.172.721a.906.906,0,0,0,.949,0l1.172-.721a.906.906,0,0,1,.474-.134h.025l1.375.038h.025a.906.906,0,0,0,.8-.475l.655-1.21a.905.905,0,0,1,.366-.366l1.21-.655a.906.906,0,0,0,.475-.822l-.038-1.375a.906.906,0,0,1,.134-.5l.72-1.172a.906.906,0,0,0,0-.949l-.721-1.172a.906.906,0,0,1-.134-.5l.038-1.375a.906.906,0,0,0-.475-.822l-1.21-.655a.905.905,0,0,1-.366-.366L15.518,4.6a.906.906,0,0,0-.8-.475H14.7l-1.375.038h-.025a.906.906,0,0,1-.474-.134l-1.172-.721a.906.906,0,0,0-.475-.134Z" transform="translate(-3.174 -3.174)"/></svg>