<svg xmlns="http://www.w3.org/2000/svg" width="191.101" height="125" viewBox="0 0 191.101 125"><defs><style>.a{fill:#ebebeb;}.b{fill:#dbdbdb;}.c{fill:#fff;}.d{fill:#c7c7c7;}.e,.k,.l,.o,.p{fill:none;}.e,.o,.p{stroke:#263238;}.e,.l{stroke-linecap:round;stroke-linejoin:round;}.f{fill:#eb9481;}.g{fill:#a6a6a6;}.h{fill:#263238;}.i{fill:#37474f;}.j{fill:#ffc727;}.k{stroke:#fff;stroke-width:0.5px;}.k,.o,.p{stroke-miterlimit:10;}.l{stroke:#f5a79e;stroke-width:0;}.m{fill:#ff99ba;}.n{opacity:0.1;}.p{stroke-dasharray:4;}</style></defs><g transform="translate(6659.38 4510.99)"><g transform="translate(-6659.38 -4510.99)"><g transform="translate(145.158 13.997)"><path class="a" d="M584.549,116.109l-2.983,14.447-1.919-1.872-3.268,2.329-2.5-3.1-5.6,4.071-4.783-8-5.338,3.126-2.116-2.919-6.778,3.819-2.039-4.365,4.75-23.01,25.47,5.259Z" transform="translate(-542.251 -100.634)"/><path class="b" d="M640.346,117.5l7.1,10.215-8.834-1.824Z" transform="translate(-605.148 -112.245)"/><path class="a" d="M569.943,190.62l-4.375,21.2-34.3-7.081,4.342-21.028,2.039,4.365,6.778-3.819,2.116,2.919,5.338-3.126,4.783,8,5.6-4.071,2.5,3.1,3.268-2.329Z" transform="translate(-531.262 -157.81)"/></g><g transform="translate(96.998 0)"><path class="a" d="M414.513,100.056l-34.961,2.164-2.777-44.88,25.959-1.606,9.532,7.994Z" transform="translate(-376.774 -55.734)"/><path class="b" d="M460.045,55.734l9.532,7.994-9,.557Z" transform="translate(-434.087 -55.734)"/><g transform="translate(11.754 10.748)"><path class="b" d="M418.991,109.659l-.135-1.012a8.991,8.991,0,0,1,2.045-6.9c1.643-2.171,2.536-3.751,2.437-5.51-.112-1.994-1.437-3.254-3.9-3.155a6.96,6.96,0,0,0-3.881,1.433L414.478,92.1a10.268,10.268,0,0,1,5.5-1.877c4.5-.252,6.685,2.41,6.852,5.382.149,2.659-1.229,4.658-2.981,6.992a7.737,7.737,0,0,0-1.907,5.872l.1,1.014Zm-.554,5.522a2.315,2.315,0,0,1,2.208-2.595,2.451,2.451,0,1,1-2.208,2.595Z" transform="translate(-414.478 -90.211)"/></g></g><g transform="translate(14.302 10.732)"><path class="a" d="M123.026,124.591l-3.518-1.6-.488,1.077a.918.918,0,0,1-.8.534,5.339,5.339,0,0,0-.575.056.917.917,0,0,1-.888-.368l-.689-.961-3.141,2.251.689.961a.918.918,0,0,1,.063.96,5.377,5.377,0,0,0-.238.526.917.917,0,0,1-.763.587l-1.177.116.379,3.844,1.181-.118a.92.92,0,0,1,.862.43c.051.08.1.158.16.236s.113.153.171.227a.916.916,0,0,1,.131.95l-.491,1.085,3.518,1.6.49-1.08a.918.918,0,0,1,.8-.533,5.454,5.454,0,0,0,.573-.055.917.917,0,0,1,.888.368l.689.961,3.141-2.25-.689-.962a.919.919,0,0,1-.063-.959,5.343,5.343,0,0,0,.237-.525.918.918,0,0,1,.763-.588l1.18-.117-.379-3.844-1.18.117a.917.917,0,0,1-.859-.43q-.077-.12-.161-.237t-.171-.227a.919.919,0,0,1-.131-.955Zm-2,3.557a3.165,3.165,0,1,1-4.415-.731A3.162,3.162,0,0,1,121.031,128.148Z" transform="translate(-111.497 -112.76)"/><path class="a" d="M650.535,291.713l-2.344,1.353.414.717a.643.643,0,0,1-.023.675,3.763,3.763,0,0,0-.2.351.644.644,0,0,1-.572.356h-.828v2.707h.828a.644.644,0,0,1,.572.356,3.771,3.771,0,0,0,.2.351.643.643,0,0,1,.023.675l-.414.717,2.344,1.353.415-.721a.644.644,0,0,1,.6-.315c.066,0,.132,0,.2,0s.133,0,.2,0a.642.642,0,0,1,.595.313l.417.723,2.344-1.353-.415-.72a.642.642,0,0,1,.024-.675,3.792,3.792,0,0,0,.2-.349.643.643,0,0,1,.572-.355h.829v-2.707h-.829a.643.643,0,0,1-.572-.355,3.708,3.708,0,0,0-.2-.349.643.643,0,0,1-.024-.675l.415-.719-2.344-1.353-.415.72a.643.643,0,0,1-.6.314c-.066,0-.133-.005-.2-.005s-.133,0-.2.005a.645.645,0,0,1-.6-.315Zm1.211,2.588a2.217,2.217,0,1,1-2.218,2.216A2.215,2.215,0,0,1,651.747,294.3Z" transform="translate(-480.05 -228.882)"/><path class="a" d="M164.5,90.473l-2.15,1.644.5.658a.644.644,0,0,1,.065.672,3.739,3.739,0,0,0-.156.374.643.643,0,0,1-.521.427l-.822.107.349,2.684.822-.107a.643.643,0,0,1,.613.279,3.748,3.748,0,0,0,.246.322.642.642,0,0,1,.11.666l-.318.765,2.5,1.039.319-.768a.644.644,0,0,1,.551-.389q.1-.008.2-.021t.2-.031a.642.642,0,0,1,.63.234l.507.663,2.15-1.644-.5-.66a.643.643,0,0,1-.064-.672,3.678,3.678,0,0,0,.155-.372.644.644,0,0,1,.521-.426l.822-.107-.349-2.684-.822.107a.644.644,0,0,1-.613-.279,3.72,3.72,0,0,0-.245-.32.643.643,0,0,1-.11-.666l.318-.767-2.5-1.039-.319.767a.643.643,0,0,1-.55.388c-.066,0-.133.012-.2.021s-.132.019-.2.031a.644.644,0,0,1-.633-.235Zm1.535,2.41a2.217,2.217,0,1,1-1.913,2.484A2.215,2.215,0,0,1,166.037,92.882Z" transform="translate(-145.859 -90.16)"/></g><g transform="translate(0 43.706)"><g transform="translate(7.149)"><path class="a" d="M106.78,233.608a85.285,85.285,0,0,0-.124-9.051,115.271,115.271,0,0,0-2.836-18.44c-.791-3.413-1.764-6.767-2.779-10.119-.031-.1-.192-.073-.164.033,3.137,11.813,5.711,24,5.534,36.285-.05,3.437-.447,6.812-.774,10.227-.009.091.142.128.162.034A51.317,51.317,0,0,0,106.78,233.608Z" transform="translate(-97.034 -195.935)"/><path class="a" d="M92.4,196.242s-4.753,12.064-3.689,14.9a5.441,5.441,0,0,0,3.258,3.441s-2.908,4.152-.876,8.046,6.547,3.71,6.847,8.125C97.938,230.752,98.19,212.291,92.4,196.242Z" transform="translate(-88.554 -196.146)"/><path class="c" d="M104.37,228.741a.093.093,0,0,0,0-.063,110.489,110.489,0,0,0-4.61-24.268c-.007-.023-.046-.016-.039.008q1.412,5.293,2.5,10.644a5.248,5.248,0,0,0-2.268-1.265.013.013,0,0,0-.009.024,6.005,6.005,0,0,1,2.342,1.565q.209,1.048.4,2.1a9.723,9.723,0,0,0-4.009-2.336.017.017,0,0,0-.012.032,9.681,9.681,0,0,1,4.1,2.753q.544,3,.955,6.026a5.747,5.747,0,0,0-2.834-1.624c-.033-.008-.051.041-.018.05a5.987,5.987,0,0,1,2.874,1.841.078.078,0,0,0,.018.013q.143,1.063.269,2.129a7.319,7.319,0,0,0-1.986-1.2c-.019-.008-.03.022-.011.03a6.831,6.831,0,0,1,1.99,1.317c.008.008.017.007.025.01.079.676.158,1.351.226,2.028a9.656,9.656,0,0,0-4.031-2.878c-.031-.012-.047.036-.017.049a10.5,10.5,0,0,1,3.973,3.057.088.088,0,0,0,.1.031q.154,1.557.271,3.12c0,.014.025.016.024,0Q104.5,230.34,104.37,228.741Z" transform="translate(-95.502 -201.758)"/><path class="c" d="M98.4,228.743a5.943,5.943,0,0,0-2.856-.89c-.024,0-.026.033,0,.036a11.311,11.311,0,0,1,2.823.922C98.41,228.829,98.439,228.767,98.4,228.743Z" transform="translate(-93.355 -217.903)"/><path class="c" d="M101.822,270.06a6.013,6.013,0,0,0-2.144-.733c-.026,0-.028.036,0,.041a8.031,8.031,0,0,1,2.12.743C101.826,270.126,101.85,270.077,101.822,270.06Z" transform="translate(-96.197 -246.448)"/></g><g transform="translate(17.151 14.935)"><path class="a" d="M132.877,244.617a32.294,32.294,0,0,0-5.5,4.809,19.751,19.751,0,0,0-3.858,6.542,48.913,48.913,0,0,0-2.874,15.648,38.005,38.005,0,0,0,.847,8.8.084.084,0,0,0,.164-.031A49.355,49.355,0,0,1,121.742,265c.817-4.991,2.1-10.42,5.271-14.476a40.086,40.086,0,0,1,6.01-5.742C133.135,244.691,132.992,244.536,132.877,244.617Z" transform="translate(-120.638 -244.36)"/><path class="a" d="M122.9,267.506a29.57,29.57,0,0,1,4.01-5.126c2.378-2.377,4.38-4.067,4.689-5.639s-2.382-2.73-2.382-2.73,3.29.591,4.191-.79,1.335-9.379,1.335-9.379-5.986,4.274-8.775,10.264A40.257,40.257,0,0,0,122.9,267.506Z" transform="translate(-122.195 -243.843)"/><path class="c" d="M132.612,250.353c-2.518,2.474-5.053,5.11-6.536,8.36a32.082,32.082,0,0,0-1.322,3.447s0,0,0,.005c-.076.237-.154.472-.226.71a.089.089,0,0,0-.012.039,67.843,67.843,0,0,0-1.7,7.389c0,.016.021.024.024.008.258-1.248.542-2.508.86-3.764a.088.088,0,0,0,.036-.007,5.235,5.235,0,0,1,1.571-.4c.036,0,.033-.065,0-.064a5.888,5.888,0,0,0-1.554.283c.29-1.133.605-2.262.96-3.376a16.707,16.707,0,0,1,3.55-.464c.012,0,.014-.018,0-.019a13.424,13.424,0,0,0-3.491.3c.062-.191.126-.381.19-.571a17.989,17.989,0,0,1,2.362-.4c.014,0,.013-.026,0-.026a11.469,11.469,0,0,0-2.313.281c.326-.963.678-1.913,1.068-2.839a17.193,17.193,0,0,1,1.13-2.194,14.451,14.451,0,0,1,1.916-.342c.018,0,.016-.031,0-.032a5.168,5.168,0,0,0-1.792.177c.315-.509.646-1.007,1-1.489h0a10.131,10.131,0,0,1,4.076-.315c.024,0,.032-.036.009-.042a8.583,8.583,0,0,0-3.905.112c.142-.189.287-.375.434-.56a8.9,8.9,0,0,1,2.508-.394.014.014,0,0,0,0-.028,6.544,6.544,0,0,0-2.339.208c1.11-1.379,2.336-2.674,3.548-3.954C132.716,250.329,132.672,250.295,132.612,250.353Z" transform="translate(-122.135 -248.303)"/><path class="c" d="M151.329,267.775a5.474,5.474,0,0,0-1.19-.041.043.043,0,0,0,0,.085c.394.012.788-.018,1.182,0A.024.024,0,0,0,151.329,267.775Z" transform="translate(-140.919 -260.273)"/><path class="c" d="M136.122,292.8a5.391,5.391,0,0,0-1.845.37c-.015.005-.006.03.009.026.609-.145,1.225-.2,1.841-.305C136.177,292.878,136.175,292.8,136.122,292.8Z" transform="translate(-130.02 -277.535)"/><path class="c" d="M134.3,284.193a3.913,3.913,0,0,0-.783.071.024.024,0,0,0,0,.047,3.933,3.933,0,0,0,.785-.037A.041.041,0,0,0,134.3,284.193Z" transform="translate(-129.489 -271.613)"/></g><g transform="translate(0 23.543)"><path class="a" d="M66.318,271.88a27.191,27.191,0,0,1,5.563,2.62,16.624,16.624,0,0,1,4.635,4.4,41.159,41.159,0,0,1,5.943,12,32,32,0,0,1,1.349,7.318.07.07,0,0,1-.14.013A41.553,41.553,0,0,0,80.041,285.8c-1.815-3.85-4.107-7.947-7.612-10.5a33.749,33.749,0,0,0-6.191-3.257C66.126,272,66.206,271.841,66.318,271.88Z" transform="translate(-66.008 -271.743)"/><path class="a" d="M80.673,287.868a24.913,24.913,0,0,0-4.43-3.221c-2.474-1.374-4.485-2.279-5.1-3.479s1.3-2.76,1.3-2.76-2.526,1.239-3.574.329-3.248-7.281-3.248-7.281,5.832,2.075,9.474,6.278A33.885,33.885,0,0,1,80.673,287.868Z" transform="translate(-65.62 -271.456)"/><path class="c" d="M86.12,289.647c-2.917-5.475-6.809-10.428-12.142-13.7a0,0,0,1,0,0,0,26.792,26.792,0,0,1,3.9,3.055,6.182,6.182,0,0,0-3.135.662.018.018,0,0,0,.016.033,8.591,8.591,0,0,1,3.226-.545.065.065,0,0,0,.036-.014q.284.269.561.546a9.929,9.929,0,0,0-1.676.222.012.012,0,0,0,0,.023,8.563,8.563,0,0,1,1.77-.146,36.629,36.629,0,0,1,2.751,3.123,2.8,2.8,0,0,0-1.172.085.023.023,0,0,0,.008.044,6.268,6.268,0,0,1,1.251-.017c.16.2.321.4.478.611a11.316,11.316,0,0,0-3.54.344.014.014,0,0,0,.005.027,14.251,14.251,0,0,1,3.635-.236c.149.2.29.4.435.6a7.676,7.676,0,0,0-2.107.241c-.027.007-.019.048.008.042a8.059,8.059,0,0,1,2.181-.17c.628.864,1.228,1.748,1.806,2.643a1.968,1.968,0,0,0-.925.056.013.013,0,0,0,0,.026,4.024,4.024,0,0,1,1,.047q.779,1.213,1.5,2.447C86.046,289.771,86.158,289.72,86.12,289.647Z" transform="translate(-71.37 -274.549)"/><path class="c" d="M94.617,305.291a4.524,4.524,0,0,0-1.694.207c-.016.005-.012.028,0,.025a13.122,13.122,0,0,1,1.685-.173A.03.03,0,0,0,94.617,305.291Z" transform="translate(-84.405 -294.734)"/><path class="c" d="M80.295,283.893a2.9,2.9,0,0,0-.781.045c-.031,0-.021.05.009.046.257-.027.51-.018.767-.025A.033.033,0,0,0,80.295,283.893Z" transform="translate(-75.17 -280.008)"/></g><g transform="translate(9.411 39.561)"><g transform="translate(0 1.223)"><path class="b" d="M108.974,344.039H95.81l1.877-13.75.48-3.525h8.451l.48,3.525Z" transform="translate(-95.81 -326.764)"/><path class="d" d="M111.241,330.289h-9.41l.48-3.525h8.451Z" transform="translate(-99.954 -326.764)"/></g><rect class="b" width="10.868" height="2.986" transform="translate(1.148)"/></g></g></g><g transform="translate(-6658.337 -4409.225)"><line class="e" x2="189.558" transform="translate(0)"/></g><g transform="translate(-6652.323 -4405.58)"><g transform="translate(0 0)"><ellipse class="a" cx="89.388" cy="9.795" rx="89.388" ry="9.795"/></g></g><g transform="translate(-6644.779 -4501.405)"><g transform="translate(0 0)"><g transform="translate(0 26.342)"><g transform="translate(15.855 5.68)"><g transform="translate(20.461 51.262)"><path class="f" d="M253.672,374.356c-.727.246-21.555.319-22.351-.18-.3-.188-.491-3.221-.613-6.892-.026-.793-.049-1.611-.067-2.443l-1.689-11.109,13.924-.089,1.314,11.112-.053,2.444s7.987,3.539,8.8,4.18S254.4,374.11,253.672,374.356Z" transform="translate(-228.952 -353.643)"/><path class="c" d="M257.4,398.888c-.727.246-21.555.319-22.351-.18-.368-.23-.569-4.659-.681-9.335l13.549-.087-.053,2.444s7.987,3.539,8.8,4.18S258.128,398.642,257.4,398.888Z" transform="translate(-232.681 -378.175)"/><g transform="translate(1.756 9.921)"><path class="g" d="M257.55,404.284c-.727.246-21.555.319-22.351-.18-.3-.188-.491-3.221-.613-6.892l13.428-.086s7.987,3.539,8.8,4.18S258.277,404.039,257.55,404.284Z" transform="translate(-234.586 -393.492)"/><g transform="translate(1.332)"><g transform="translate(0 3.977)"><path class="h" d="M260.786,417.339c-3.492-.073-17.582-.04-21.039.152-.028,0-.028.021,0,.022,3.459.148,17.549,0,21.039-.117C260.86,417.394,260.86,417.34,260.786,417.339Z" transform="translate(-239.455 -411.355)"/><path class="h" d="M295.273,408.143a2.805,2.805,0,0,0-2.085.86,2.717,2.717,0,0,0-.774,1.867c0,.021.039.021.042,0a3.241,3.241,0,0,1,2.817-2.683A.022.022,0,0,0,295.273,408.143Z" transform="translate(-275.718 -405.05)"/><path class="h" d="M273.422,398.225a4.864,4.864,0,0,0-3.88,1.63c-.034.044.03.091.071.07a19.32,19.32,0,0,1,3.833-1.528A.088.088,0,0,0,273.422,398.225Z" transform="translate(-259.97 -398.225)"/><path class="h" d="M276.888,399.562a4.865,4.865,0,0,0-3.88,1.63c-.034.044.03.091.071.07a19.322,19.322,0,0,1,3.834-1.529A.088.088,0,0,0,276.888,399.562Z" transform="translate(-262.355 -399.145)"/><path class="h" d="M280.353,400.9a4.866,4.866,0,0,0-3.881,1.63c-.033.044.03.091.072.07a19.321,19.321,0,0,1,3.833-1.528A.088.088,0,0,0,280.353,400.9Z" transform="translate(-264.74 -400.065)"/><path class="h" d="M283.818,402.236a4.865,4.865,0,0,0-3.88,1.63c-.034.044.03.091.071.07a19.3,19.3,0,0,1,3.834-1.528A.088.088,0,0,0,283.818,402.236Z" transform="translate(-267.126 -400.986)"/><path class="h" d="M240.028,407.259a1.219,1.219,0,0,0,.016,2.437A1.219,1.219,0,0,0,240.028,407.259Z" transform="translate(-238.858 -404.443)"/></g><path class="h" d="M279.549,385.711c-.71-.584-1.6-.008-2.033.6a7.333,7.333,0,0,0-1.258,3.578.037.037,0,0,0,.044.04.17.17,0,0,0,.252.112,12.2,12.2,0,0,0,2.89-2.284C279.883,387.19,280.22,386.263,279.549,385.711Zm-1.7,2.976c-.48.352-.974.678-1.441,1.048a21.921,21.921,0,0,1,.78-2.073,7.868,7.868,0,0,1,.507-.945c.3-.463,1.669-1.635,1.814-.116C279.585,387.439,278.417,388.267,277.845,388.687Z" transform="translate(-264.6 -385.468)"/><path class="h" d="M261.808,396.019a12.209,12.209,0,0,0,3.666-.358.17.17,0,0,0,.1-.255.037.037,0,0,0,0-.059,7.334,7.334,0,0,0-3.387-1.707c-.736-.139-1.777.062-1.883.975C260.212,395.478,261.1,395.912,261.808,396.019Zm-.847-.792c-.95-1.2.849-1.3,1.388-1.174a7.881,7.881,0,0,1,1.02.329,21.95,21.95,0,0,1,2,.953c-.593.057-1.175.165-1.765.243C262.9,395.672,261.485,395.886,260.962,395.226Z" transform="translate(-253.619 -391.065)"/></g></g></g><path class="i" d="M163.318,189.2s16.17,27.508,16.6,29.439c.665,2.967,4.192,32.276,4.192,32.276l16.825-.3s-2.9-25.84-5.646-34.353c-1.978-6.132-16.248-26.469-16.248-26.469Z" transform="translate(-163.318 -189.203)"/><g transform="translate(2.703 2.51)"><path class="h" d="M247.708,377.863c-2.416-.017-10.978-.114-14.194.186-.025,0-.024.043,0,.046,1.107.159,11.78-.089,14.195-.166A.033.033,0,1,0,247.708,377.863Z" transform="translate(-214.321 -321.541)"/><path class="h" d="M172.045,197.269c1.06,1.662,2.177,3.289,3.261,4.937s2.164,3.3,3.23,4.958q3.2,4.975,6.241,10.041a30.622,30.622,0,0,1,2.521,4.9,29.982,29.982,0,0,1,1.419,5.28c.33,1.806.547,3.629.752,5.451q.327,2.911.65,5.822l1.33,11.913q.082.731.157,1.462c.007.071-.121.086-.13.014-.5-3.946-.906-7.9-1.356-11.855l-.672-5.9c-.208-1.829-.406-3.66-.69-5.48a36.233,36.233,0,0,0-1.185-5.3,25.539,25.539,0,0,0-2.326-5.148c-1.95-3.362-4.013-6.668-6.077-9.965-2.082-3.325-4.181-6.641-6.358-9.908-.269-.4-.54-.8-.819-1.2C171.971,197.267,172.025,197.237,172.045,197.269Z" transform="translate(-171.988 -197.255)"/></g></g><g transform="translate(0 52.398)"><path class="f" d="M133.614,365.946c-.767-.047-20.573-8.072-21.125-8.832a.277.277,0,0,1-.03-.146c0-.681,1.375-3.065,2.522-6.193.072-.2.583-1.128,1.292-2.38,1.951-3.438,5.4-9.328,5.4-9.328l12.946,5.144-6.2,9.276-.965,2.245s6.076,6.279,6.589,7.178S134.378,365.989,133.614,365.946Z" transform="translate(-112.458 -339.066)"/><path class="c" d="M133.614,386.54c-.767-.047-20.573-8.072-21.125-8.832a.277.277,0,0,1-.03-.147c0-.681,1.375-3.065,2.522-6.193.072-.2.583-1.128,1.292-2.38l12.151,5.092-.965,2.245s6.076,6.279,6.589,7.178S134.378,386.584,133.614,386.54Z" transform="translate(-112.458 -359.66)"/><g transform="translate(0 11.709)"><path class="g" d="M133.613,391.795c-.766-.045-20.573-8.071-21.124-8.832-.21-.287.675-2.993,2.49-6.338l12.48,4.958s6.076,6.277,6.59,7.176S134.379,391.839,133.613,391.795Z" transform="translate(-112.459 -376.625)"/><g transform="translate(1.603 2.299)"><g transform="translate(0 1.393)"><path class="h" d="M137.184,405.331c-3.209-1.378-16.283-6.633-19.56-7.751-.026-.009-.034.009-.008.02,3.151,1.436,16.267,6.585,19.547,7.784C137.232,405.409,137.252,405.36,137.184,405.331Z" transform="translate(-117.6 -394.738)"/><path class="h" d="M170.509,411.213a2.8,2.8,0,0,0-2.256.015,2.719,2.719,0,0,0-1.418,1.44c-.007.02.028.034.039.016a3.241,3.241,0,0,1,3.618-1.43A.022.022,0,0,0,170.509,411.213Z" transform="translate(-151.486 -403.965)"/><path class="h" d="M154.856,394.182a4.864,4.864,0,0,0-4.208.056c-.048.028-.007.1.04.091a19.332,19.332,0,0,1,4.127.021A.088.088,0,0,0,154.856,394.182Z" transform="translate(-140.331 -392.091)"/><path class="h" d="M157.566,396.722a4.866,4.866,0,0,0-4.209.055c-.048.029-.006.1.04.091a19.327,19.327,0,0,1,4.127.022A.088.088,0,0,0,157.566,396.722Z" transform="translate(-142.196 -393.839)"/><path class="h" d="M160.277,399.261a4.866,4.866,0,0,0-4.209.055c-.048.029-.006.1.04.092a19.311,19.311,0,0,1,4.127.022A.088.088,0,0,0,160.277,399.261Z" transform="translate(-144.062 -395.586)"/><path class="h" d="M162.988,401.8a4.865,4.865,0,0,0-4.208.056c-.048.028-.007.1.04.091a19.327,19.327,0,0,1,4.127.022A.088.088,0,0,0,162.988,401.8Z" transform="translate(-145.927 -397.334)"/><path class="h" d="M120.656,388.564a1.219,1.219,0,0,0-.9,2.264A1.219,1.219,0,0,0,120.656,388.564Z" transform="translate(-118.573 -388.47)"/></g><path class="h" d="M162.934,384.648c-.439-.808-1.479-.607-2.11-.2a7.333,7.333,0,0,0-2.508,2.845.037.037,0,0,0,.026.053c-.009.1.069.226.191.2a12.2,12.2,0,0,0,3.536-1.033C162.689,386.145,163.349,385.412,162.934,384.648Zm-2.7,2.12c-.577.146-1.157.263-1.729.431a21.947,21.947,0,0,1,1.5-1.629,7.9,7.9,0,0,1,.825-.685c.454-.316,2.161-.89,1.725.573C162.319,386.264,160.926,386.593,160.238,386.768Z" transform="translate(-145.62 -384.064)"/><path class="h" d="M145.182,386.416a12.207,12.207,0,0,0,3.533,1.044c.122.028.2-.094.192-.2a.037.037,0,0,0,.026-.053,7.331,7.331,0,0,0-2.5-2.852c-.63-.405-1.67-.609-2.111.2C143.906,385.316,144.563,386.051,145.182,386.416Zm-.487-1.052c-.432-1.464,1.274-.885,1.726-.568a7.914,7.914,0,0,1,.822.688,21.931,21.931,0,0,1,1.5,1.634c-.571-.169-1.151-.288-1.727-.436C146.325,386.5,144.933,386.171,144.695,385.364Z" transform="translate(-135.902 -384.001)"/></g></g></g><g transform="translate(2.473)"><path class="i" d="M134.881,237.281,120.39,231.43s17.967-26.418,18.1-28.385c.118-1.742-7.774-16.9-8.085-21.316a13.191,13.191,0,0,1,4.482-10.746l14.949,6.354a13.018,13.018,0,0,1-4.063,3.929s7.666,17.52,7.231,22.907C152.568,209.589,134.881,237.281,134.881,237.281Z" transform="translate(-120.39 -170.983)"/><g transform="translate(2.686 1.281)"><path class="h" d="M141.455,363.718c-2.1-.9-1.481-.672-3.587-1.55-1.03-.43-7.8-3.245-8.835-3.477a.024.024,0,0,0-.017.043c.9.552,7.723,3.249,8.761,3.659,2.122.837,1.522.573,3.653,1.386A.033.033,0,0,0,141.455,363.718Z" transform="translate(-129.006 -301.456)"/><g transform="translate(20.574 5.244)"><path class="h" d="M199.589,202.937a28.153,28.153,0,0,0-4.553,1.476.048.048,0,0,0,.031.091c1.528-.446,3.082-.863,4.583-1.39A.094.094,0,0,0,199.589,202.937Z" transform="translate(-195.004 -199.498)"/><path class="h" d="M202.741,200.8a6.669,6.669,0,0,0-.384.8,1.842,1.842,0,0,0-.2.671c0,.045.061.056.089.028a2.376,2.376,0,0,0,.376-.633c.127-.247.26-.491.38-.741C203.085,200.765,202.832,200.646,202.741,200.8Z" transform="translate(-199.93 -197.981)"/><path class="h" d="M203.57,193.33c.092-.23.184-.46.281-.688s.217-.469.3-.711c.013-.038.073-.013.058.026-.091.23-.151.476-.224.713s-.151.474-.23.711c-.147.44-.326.877-.515,1.3a1.635,1.635,0,0,0,.718-.125,1.3,1.3,0,0,0,.506-.608c.132-.257.253-.521.389-.776a5.5,5.5,0,0,0,.415-.868c.012-.039.072-.013.058.026a10.017,10.017,0,0,1-.8,1.843c-.138.228-.249.466-.5.556a2.1,2.1,0,0,1-.853.057c-.035.01-.08-.013-.068-.055A14.628,14.628,0,0,1,203.57,193.33Z" transform="translate(-200.577 -191.912)"/></g><path class="h" d="M202.437,205.762c.531,1.126,1,2.249,1.5,3.371.485,1.1.94,2.206,1.381,3.321.892,2.253,1.69,4.547,2.391,6.866q.52,1.722.955,3.467a25.278,25.278,0,0,1,.692,3.544,9.363,9.363,0,0,1-.3,3.553,20.586,20.586,0,0,1-1.319,3.313c-.325.674-.437.583-.279.243a16.22,16.22,0,0,0,1.53-6.353,18.4,18.4,0,0,0-.553-3.51c-.274-1.178-.583-2.347-.92-3.508-.664-2.287-1.453-4.529-2.264-6.767-.454-1.254-.942-2.5-1.4-3.747s-.944-2.4-1.46-3.772A.03.03,0,0,1,202.437,205.762Z" transform="translate(-179.506 -196.188)"/><path class="h" d="M167.154,186.972c.26-.1.62.063.884.108a7.636,7.636,0,0,0,2.046.068,2.192,2.192,0,0,0,.975-.258,4.9,4.9,0,0,0,1.243-1.321,7.568,7.568,0,0,0,.97-1.7c.013-.036.066-.012.055.025-.109.347-.19.7-.329,1.037a6.575,6.575,0,0,1-.479.919,3.946,3.946,0,0,1-1.291,1.464,3.742,3.742,0,0,1-2.047.284,7.788,7.788,0,0,1-1.154-.154c-.274-.058-.736-.1-.911-.343A.085.085,0,0,1,167.154,186.972Z" transform="translate(-155.226 -181.119)"/><path class="h" d="M133.639,231.5q3.573-5.407,7.015-10.9t6.788-11.082a15.487,15.487,0,0,0,1.492-2.761,4.808,4.808,0,0,0-.177-3.153,53.184,53.184,0,0,0-2.225-5.625c-.835-1.842-1.735-3.653-2.62-5.472A52.705,52.705,0,0,1,141.434,187a9.424,9.424,0,0,1-.39-5.565,16.23,16.23,0,0,1,2.626-5.1c.289-.412.583-.82.873-1.231.022-.031.07.007.046.038A21.731,21.731,0,0,0,141.5,180.4a9.1,9.1,0,0,0-.6,2.947,9.522,9.522,0,0,0,.471,3.014,39.716,39.716,0,0,0,2.375,5.47c.882,1.821,1.787,3.63,2.637,5.465a58.158,58.158,0,0,1,2.313,5.649,7.938,7.938,0,0,1,.6,2.675,5.825,5.825,0,0,1-1,2.762c-2.168,3.7-4.417,7.345-6.695,10.974s-4.618,7.257-6.985,10.847q-.447.679-.9,1.357C133.683,231.618,133.6,231.552,133.639,231.5Z" transform="translate(-132.188 -175.092)"/></g></g></g><g transform="translate(15.289)"><g transform="translate(16.552 13.26)"><path class="f" d="M216.692,132.256c1.349,2.962,8.165,7.043,11.358,7.482a66.7,66.7,0,0,0,11.662.059c2.8-.428.661-7.99-1-7.8-4.551.532-8.415,1.124-9.63,1.124-1.483,0-9.512-2.577-10.479-2.939C216.24,129.3,215.927,130.576,216.692,132.256Z" transform="translate(-215.783 -129.622)"/><path class="j" d="M215.549,132.437c1.708,2.528,7.387,6.66,7.387,6.66l.788-1.746,2.608-5.772s-5.215-1.646-8.647-2.379a7.566,7.566,0,0,0-1.228-.175C214.266,128.907,214.076,130.262,215.549,132.437Z" transform="translate(-214.598 -129.018)"/><path class="h" d="M215.549,132.437c1.708,2.528,7.387,6.66,7.387,6.66l.788-1.746c-2.118-2.458-5.386-6.184-7.267-8.325C214.266,128.907,214.076,130.262,215.549,132.437Z" transform="translate(-214.598 -129.018)"/><path class="h" d="M238.056,143.734c.433-1.061,2.361-5.341,2.839-6.239.033-.062.08-.057.054.012a63.157,63.157,0,0,1-2.851,6.242C238.086,143.774,238.045,143.761,238.056,143.734Z" transform="translate(-230.742 -134.822)"/><g transform="translate(22.099 1.979)"><path class="f" d="M285.487,135.849c2.77-.363,6.2-.984,9.1.247a1.562,1.562,0,0,1,.776.666c1.31.529,1.454,1.307,1.454,1.307a2.594,2.594,0,0,1,1.107,1.682s1.532.638,1.3,1.627c-.257,1.111-2.357,0-3.887.092a76.994,76.994,0,0,0-9.43,1.666Z" transform="translate(-285.487 -135.367)"/><path class="h" d="M304.7,146.9a15.78,15.78,0,0,1,6.385.654.027.027,0,0,0,.017-.052,11.938,11.938,0,0,0-6.4-.649C304.645,146.865,304.645,146.905,304.7,146.9Z" transform="translate(-298.681 -143.154)"/><path class="h" d="M303.272,140.491a16.633,16.633,0,0,1,5.739,1.081c.01,0,.018-.012.008-.017a10.714,10.714,0,0,0-5.746-1.112C303.21,140.447,303.206,140.49,303.272,140.491Z" transform="translate(-297.695 -138.838)"/><path class="h" d="M302.579,136.908a16.826,16.826,0,0,1,4.5.879c.01,0,.018-.013.007-.017a10.032,10.032,0,0,0-4.513-.921C302.51,136.847,302.512,136.9,302.579,136.908Z" transform="translate(-297.215 -136.387)"/><path class="f" d="M292.049,156.636c-.445.209-.339.444.513.641s4.39.255,4.266,1.488-5.116,1.079-6.509.642a23.2,23.2,0,0,1-3.494-1.632C287.8,157.61,290.136,156.984,292.049,156.636Z" transform="translate(-286.409 -150.006)"/></g></g><g transform="translate(0 12.179)"><path class="h" d="M227.114,152.572c-.022.532-.074,1.075-.149,1.612.007-.019.016-.038.023-.057.1-.281.2-.569.331-.839.007-.014.032-.011.029.007a4.637,4.637,0,0,1-.27.868c-.054.132-.108.265-.166.4-.039.239-.081.477-.13.711-.092.446-.513,2.342-.609,2.663-.02.068-.1.052-.1-.023.023-.349.376-2.324.448-2.771a24.359,24.359,0,0,1,.556-2.573C227.086,152.544,227.115,152.554,227.114,152.572Z" transform="translate(-205.947 -144.136)"/><path class="j" d="M179.419,148.16c-.832.429-1.9,1.093-6.735.142-.3-.061-.606-.136-.91-.226-4.531-1.361-9.965-6.689-10.272-7.065,0,0,7.2-11.669,16.4-15.337,1.138-.453,3.022.421,4.064,1.509a10.476,10.476,0,0,1,.87,5.572C182.526,135.072,180.257,147.735,179.419,148.16Z" transform="translate(-161.502 -125.552)"/><g transform="translate(2.482 1.512)"><line class="k" x1="0.202" y2="1.453" transform="translate(14.59 5.585)"/><line class="k" x1="0.202" y2="1.453" transform="translate(11.452 13.531)"/><line class="k" x1="0.202" y2="1.453" transform="translate(6.117 7.526)"/><line class="k" x1="0.202" y2="1.453" transform="translate(16.646 13.128)"/><line class="k" x2="1.453" y2="0.202" transform="translate(9.998 6.495)"/><line class="k" x2="1.453" y2="0.202" transform="translate(3.944 12.236)"/><line class="k" x2="1.453" y2="0.202" transform="translate(11.066 18.449)"/><line class="k" x2="1.453" y2="0.202" transform="translate(2.078 16.192)"/><line class="k" x2="1.453" y2="0.202" transform="translate(14.747)"/><line class="k" x1="1.171" y2="0.885" transform="translate(11.816 1.989)"/><line class="k" x1="1.171" y2="0.885" transform="translate(2.216 7.639)"/><line class="k" x1="1.171" y2="0.885" transform="translate(14.202 10.192)"/><line class="k" x1="1.171" y2="0.885" transform="translate(6.44 15.079)"/><line class="k" x1="1.171" y2="0.885" transform="translate(17.176 3.512)"/><line class="k" x1="0.885" y1="1.171" transform="translate(17.299 8.007)"/><line class="k" x1="0.885" y1="1.171" transform="translate(0 11.908)"/><line class="k" x1="0.885" y1="1.171" transform="translate(15.197 16.552)"/><line class="k" x1="0.885" y1="1.171" transform="translate(7.581 3.319)"/><line class="k" x1="0.885" y1="1.171" transform="translate(7.715 19.195)"/><line class="k" x1="0.885" y1="1.171" transform="translate(9.01 9.83)"/></g></g><g transform="translate(16.356)"><g transform="translate(0 8.333)"><path class="f" d="M216.389,121.8c-1.173-.218-2.279-2.646-2.418-4.28-.009-.112.549-1,1.176-2.114.378-.677.783-1.439,1.1-2.162.065-.149.449.347.449.347l.835.639,2.76,2.117a12.592,12.592,0,0,0-1.663,2.581,1.8,1.8,0,0,0-.1.31c0,.014-.008.032-.015.052C218.358,119.891,217.522,122.007,216.389,121.8Z" transform="translate(-213.971 -113.214)"/><path class="h" d="M223.139,120.182c0,.014-.008.032-.015.052a3.15,3.15,0,0,1-.477-.181c-3.021-1.416-1.688-5.463-1.688-5.463l1.183.585,2.76,2.117a12.591,12.591,0,0,0-1.663,2.581A1.8,1.8,0,0,0,223.139,120.182Z" transform="translate(-218.579 -114.16)"/></g><g transform="translate(0.911)"><path class="h" d="M244.418,95.582a3.158,3.158,0,0,1,1.389,2.435,6.285,6.285,0,0,1-.756,3.137C244.907,101.209,244.418,95.582,244.418,95.582Z" transform="translate(-235.837 -92.745)"/><g transform="translate(1.151 1.496)"><path class="f" d="M221.163,93.43c-.83,1.638-.788,6.8.248,8.125,1.5,1.927,4.4,2.591,6.143.686,1.693-1.847,1.52-8.568.322-9.82A4.38,4.38,0,0,0,221.163,93.43Z" transform="translate(-220.583 -91.28)"/></g><path class="l" d="M222.87,124.011v0" transform="translate(-221.006 -112.311)"/><g transform="translate(5.136 5.761)"><g transform="translate(0.234 1.656)"><path class="h" d="M235.754,111.425c0-.013-.027.017-.026.031.019.351-.018.757-.333.881-.01,0-.008.021,0,.02C235.784,112.293,235.828,111.754,235.754,111.425Z" transform="translate(-234.992 -111.064)"/><path class="h" d="M234.557,110.276c-.566-.03-.584,1.105-.06,1.133S235.032,110.3,234.557,110.276Z" transform="translate(-234.118 -110.275)"/></g><g transform="translate(2.891 1.641)"><path class="h" d="M242.67,111.383c0-.013.027.017.026.031-.017.351.023.757.339.878.01,0,.008.021,0,.019C242.645,112.251,242.6,111.713,242.67,111.383Z" transform="translate(-242.641 -111.02)"/><path class="h" d="M243.011,110.226c.566-.034.592,1.1.068,1.132S242.536,110.255,243.011,110.226Z" transform="translate(-242.663 -110.226)"/></g><path class="h" d="M233.684,105.755a4.427,4.427,0,0,0,.442-.148.753.753,0,0,0,.422-.237.24.24,0,0,0-.034-.291.6.6,0,0,0-.6-.071.874.874,0,0,0-.51.37A.256.256,0,0,0,233.684,105.755Z" transform="translate(-233.366 -104.962)"/><path class="h" d="M242.979,107.429a4.466,4.466,0,0,1-.449-.124.753.753,0,0,1-.434-.214.241.241,0,0,1,.018-.293.6.6,0,0,1,.594-.1.872.872,0,0,1,.529.343A.256.256,0,0,1,242.979,107.429Z" transform="translate(-239.346 -106.132)"/><path class="h" d="M233.918,122.1c.083.084.165.2.292.211a.924.924,0,0,0,.379-.082.012.012,0,0,1,.015.018.474.474,0,0,1-.449.184.374.374,0,0,1-.272-.315C233.879,122.1,233.905,122.092,233.918,122.1Z" transform="translate(-233.722 -116.756)"/><g transform="translate(0.714 0.448)"><path class="h" d="M237.18,109.8s.015.526-.012.771a5.134,5.134,0,0,0-1.435.051c-.111.024-.1-.066.028-.125a2.1,2.1,0,0,1,1.22-.162c.025-.066-.038-.81,0-.808a2.142,2.142,0,0,1,.542.186c0-1.1-.175-2.185-.158-3.277a.033.033,0,0,1,.065-.009,17.73,17.73,0,0,1,.32,3.523C237.757,110.087,237.274,109.848,237.18,109.8Z" transform="translate(-235.657 -106.399)"/></g><g transform="translate(0.438 4.427)"><path class="h" d="M235.871,119.165a1.577,1.577,0,0,1-.655.782c-.471.191-.633-.236-.152-.613A1.519,1.519,0,0,1,235.871,119.165Z" transform="translate(-234.773 -119.163)"/><path class="m" d="M235.377,120.433a.637.637,0,0,1-.165.1c-.433.175-.6-.171-.256-.521C235.193,120.028,235.452,120.115,235.377,120.433Z" transform="translate(-234.77 -119.745)"/></g></g><g transform="translate(0.614)"><path class="h" d="M219.739,94.541c.57.175,1.226-1.539,1.411-2.2.163-.581.352-2.423.38-2.549s2.485,1.63,3.922,1.21a3.444,3.444,0,0,0,2.417-2.311c.02-.6-1.764-2.129-3.308-2.208s-3.633,1.884-3.633,1.884a7.16,7.16,0,0,0,.686-.917,1.69,1.69,0,0,0-1.2,1.039s.2-.892.122-.908-.85.747-.676,1.326a3.049,3.049,0,0,0-.979,1.628C218.793,91.388,219.07,94.335,219.739,94.541Z" transform="translate(-218.861 -86.483)"/><path class="h" d="M231.155,96.711a4.815,4.815,0,0,1-1.357.486,3.234,3.234,0,0,1-1.549-.248,4.889,4.889,0,0,1-1.359-.8c-.359-.3-.678-.653-1.062-.916-.1-.066-.207.072-.148.161a5.164,5.164,0,0,0,2.607,1.919,2.964,2.964,0,0,0,2.873-.585S231.162,96.707,231.155,96.711Z" transform="translate(-223.543 -92.49)"/></g><g transform="translate(0 6.368)"><path class="f" d="M218.98,108.448s-.884-1.8-1.682-1.5-.307,2.773.508,3.227a.889.889,0,0,0,1.25-.291Z" transform="translate(-216.892 -106.911)"/><path class="h" d="M218.671,109.283a.012.012,0,0,0-.008.022,2.248,2.248,0,0,1,.934,1.566.491.491,0,0,0-.706-.244c-.017.009-.006.036.012.035a.546.546,0,0,1,.566.28,2.635,2.635,0,0,1,.211.525c.02.059.122.045.111-.021l0-.015A1.976,1.976,0,0,0,218.671,109.283Z" transform="translate(-218.107 -108.544)"/></g></g></g><g transform="translate(12.893 13.83)"><g transform="translate(0.552 0.821)"><path class="f" d="M204.7,134.754c-.609,3.531,3.2,15.431,5.658,17.654,3.651,3.305,10.4,5.479,12.847,6.186,1.066.308,4.015-7.193,2.937-7.687-2.31-1.058-9.486-3.3-10.162-3.871a74.18,74.18,0,0,1-6.633-9.929C206.884,132.514,205,132.967,204.7,134.754Z" transform="translate(-204.63 -133.483)"/><g transform="translate(15.424 16.763)"><path class="f" d="M258.375,187.255s3.183.811,5.24,1.44a13.167,13.167,0,0,1,3.786,1.77c1.085.962,5.006,5.678,3.884,6.653-1.016.883-3.871-3.6-3.871-3.6s3.281,4.265,1.861,5.1-3.972-4.652-3.972-4.652,3.272,4.458,1.672,5.091c-1.21.479-3.8-4.364-3.8-4.364s2.786,3.851,1.563,4.4c-1.351.6-4.024-3.717-4.024-3.717a7.561,7.561,0,0,1-6.587-.937C253.808,194.239,258.375,187.255,258.375,187.255Z" transform="translate(-254.108 -187.255)"/><g transform="translate(8.492 4.714)"><path class="h" d="M293.4,202.381c.4.487.815.977,1.174,1.5s.7,1.056,1.008,1.608a10.8,10.8,0,0,1,1,2.264,23.273,23.273,0,0,0-2.151-3.778c-.358-.52-.69-1.058-1.048-1.579C293.372,202.381,293.391,202.37,293.4,202.381Z" transform="translate(-289.629 -202.377)"/><path class="h" d="M287.3,206.431a13.388,13.388,0,0,1,2.7,3.956c.024.057-.007.053-.041,0-.438-.676-2.208-3.3-2.677-3.946C287.273,206.432,287.288,206.424,287.3,206.431Z" transform="translate(-285.43 -205.165)"/><path class="h" d="M281.385,208.954a9.71,9.71,0,0,1,2,3.124c.024.057-.022.048-.054-.006-.646-1.051-1.145-1.88-1.98-3.091C281.339,208.963,281.367,208.936,281.385,208.954Z" transform="translate(-281.349 -206.9)"/></g></g></g><path class="j" d="M206.947,133.2c-2.846-4.026-4.547-2.533-3.977,1.836a70.086,70.086,0,0,0,1.966,8.955l7.183-3.479S208.768,135.776,206.947,133.2Z" transform="translate(-202.86 -130.848)"/><g transform="translate(0.916 0.122)"><line class="k" x2="0.251" y2="1.446" transform="translate(4.91 3.812)"/><line class="k" y1="0.251" x2="1.446" transform="translate(0.66 6.009)"/><line class="k" x1="0.845" y2="1.2"/><line class="k" x1="0.845" y2="1.2" transform="translate(6.061 8.14)"/><line class="k" x1="1.2" y1="0.845" transform="translate(0.737 9.737)"/></g><path class="h" d="M218.981,142.266c.382.526.778,1.042,1.173,1.558-.1-.261-.187-.525-.264-.795a.01.01,0,0,1,.019-.006c.08.207.168.411.245.618q.055.15.113.3l.025.064c.307.4.613.807.908,1.219.353.491.693.99,1.035,1.489.354.515.688,1.119,1.061,1.619a4.03,4.03,0,0,1-.7.348c-.064.036-.107-.026-.039-.047s.592-.344.6-.351c-.342-.5-.739-.967-1.1-1.459s-.714-.977-1.059-1.474c-.7-1.009-1.345-2.057-2.041-3.07C218.95,142.267,218.971,142.254,218.981,142.266Z" transform="translate(-213.939 -138.703)"/><path class="h" d="M203.689,150.391c.109.213.227.423.323.642.04.09.079.181.119.271q-.246-1.167-.484-2.336c0-.009.012-.014.014,0,.329,1.262.662,2.522.967,3.789a36.975,36.975,0,0,1,.81,3.665,4.3,4.3,0,0,1,.675-.228,3.2,3.2,0,0,1-.741.358,38.18,38.18,0,0,1-.935-3.813c-.078-.349-.151-.7-.225-1.049-.081-.211-.179-.414-.275-.618s-.183-.444-.272-.666C203.661,150.389,203.682,150.379,203.689,150.391Z" transform="translate(-203.402 -143.313)"/><path class="h" d="M209.861,162.225c1-.563,5.167-2.721,6.1-3.128.065-.028.1,0,.035.043a63.134,63.134,0,0,1-6.111,3.122C209.86,162.275,209.836,162.239,209.861,162.225Z" transform="translate(-207.672 -150.284)"/></g></g></g></g><g transform="translate(-6609.014 -4479.632)"><g transform="translate(0 0)"><g transform="translate(13.858)"><path class="j" d="M366.618,260.088H271.638L285.372,182.2h94.979Z" transform="translate(-271.638 -174.134)"/><path class="j" d="M348.2,156.325H317.116l-1.422,8.066H348.96Z" transform="translate(-301.96 -156.325)"/><g class="n"><path d="M366.618,260.088H271.638L285.372,182.2h94.979Z" transform="translate(-271.638 -174.134)"/><path d="M348.2,156.325H317.116l-1.422,8.066H348.96Z" transform="translate(-301.96 -156.325)"/></g></g><g transform="translate(17.503 0.578)"><line class="o" y1="2.713" transform="translate(8.157)"/><line class="o" x1="1.356" y1="2.349" transform="translate(4.038 1.162)"/><line class="o" x1="2.349" y1="1.356" transform="translate(1.053 4.228)"/><line class="o" x1="2.713" transform="translate(0 8.376)"/><line class="o" x1="2.349" y2="1.356" transform="translate(1.162 11.138)"/><line class="o" x1="1.356" y2="2.349" transform="translate(4.228 13.131)"/><line class="o" y2="2.713" transform="translate(8.376 13.82)"/><line class="o" x2="1.356" y2="2.349" transform="translate(11.138 13.022)"/><line class="o" x2="2.349" y2="1.356" transform="translate(13.131 10.949)"/><line class="o" x2="2.713" transform="translate(13.82 8.157)"/><line class="o" y1="1.356" x2="2.349" transform="translate(13.022 4.038)"/><line class="o" y1="2.349" x2="1.356" transform="translate(10.949 1.053)"/></g><path class="j" d="M335.882,266.33H240.7l-13.514-75.06h95.184Z" transform="translate(-227.184 -180.377)"/><g transform="translate(29.027 48.866)"><circle class="h" cx="3.956" cy="3.956" r="3.956"/><circle class="h" cx="3.956" cy="3.956" r="3.956" transform="translate(31.275 0)"/><path class="h" d="M374.636,324.552l-.217-.051a31,31,0,0,0-6.176-.467c-3.75,0-4.665.435-4.7.453l-.111.055-.907-.027.109-.055c.011-.005,1.114-.541,5.611-.541a34.225,34.225,0,0,1,7,.528l.217.051Z" transform="translate(-349.36 -316.008)"/></g></g></g><g transform="translate(-6506.633 -4497.911)"><g transform="translate(0 0)"><path class="p" d="M555.607,168.336c5.526-1.187,10.519-5.315,10.941-10.241.829-9.664-10.941-15-9.725-26.169,1.16-10.652,12.333-11.412,16.812-9.94,4.947,1.626,3.252,6.381-1.227,5.767-7.765-1.064-12.646-9.506-8.958-19.082,3.5-9.081,13.621-10.983,13.621-10.983" transform="translate(-555.607 -97.688)"/></g></g><g transform="translate(-6598.983 -4507.298)"><g transform="translate(0 0)"><path class="c" d="M277.07,76.378a7.767,7.767,0,0,1-12.981,4.915l-3.887.57,1.945-3.36a7.77,7.77,0,1,1,14.923-2.125Z" transform="translate(-259.94 -67.731)"/><path class="h" d="M276.492,76.227a7.822,7.822,0,0,1-1.568,3.939,7.025,7.025,0,0,1-1.524,1.505,7.659,7.659,0,0,1-1.874,1.043,7.749,7.749,0,0,1-2.092.5,7.657,7.657,0,0,1-1.08.021,6.809,6.809,0,0,1-1.075-.112,7.841,7.841,0,0,1-3.844-1.9l.092.028-3.883.6-.282.043.143-.248,1.933-3.367-.009.133a7.858,7.858,0,0,1,.479-6.925,7.949,7.949,0,0,1,2.433-2.591,7.9,7.9,0,0,1,6.83-.92,7.937,7.937,0,0,1,3,1.837A7.815,7.815,0,0,1,276.492,76.227Zm0,0a7.686,7.686,0,0,0-8.811-8.408,7.636,7.636,0,0,0-3.209,1.268,8,8,0,0,0-2.325,2.536,7.669,7.669,0,0,0-.986,3.288,7.764,7.764,0,0,0,.547,3.385l.028.07-.037.063-1.956,3.354-.139-.2,3.891-.545.054-.007.038.036a7.652,7.652,0,0,0,3.721,1.916,6.654,6.654,0,0,0,1.054.128,7.518,7.518,0,0,0,1.063,0,7.654,7.654,0,0,0,2.075-.457,7.223,7.223,0,0,0,1.874-1.01,6.977,6.977,0,0,0,1.527-1.487A7.807,7.807,0,0,0,276.492,76.227Z" transform="translate(-259.362 -67.579)"/><g transform="translate(5.604 3.435)"><path class="j" d="M277.338,86.626a.755.755,0,0,1,.76-.8.8.8,0,0,1,0,1.6A.755.755,0,0,1,277.338,86.626Zm.322-1.843-.18-6.185h1.237l-.18,6.185Z" transform="translate(-277.338 -78.599)"/><path class="j" d="M286.845,86.626a.756.756,0,0,1,.76-.8.8.8,0,0,1,0,1.6A.755.755,0,0,1,286.845,86.626Zm.322-1.843-.18-6.185h1.237l-.18,6.185Z" transform="translate(-283.881 -78.599)"/><path class="j" d="M296.352,86.626a.756.756,0,0,1,.76-.8.8.8,0,0,1,0,1.6A.755.755,0,0,1,296.352,86.626Zm.322-1.843-.18-6.185h1.237l-.18,6.185Z" transform="translate(-290.425 -78.599)"/></g></g></g></g></svg>