<svg xmlns="http://www.w3.org/2000/svg" width="12.517" height="16" viewBox="0 0 12.517 16"><defs><style>.a{fill:#5773ff;}</style></defs><path class="a" d="M21.078,6.236a11.747,11.747,0,0,0,1.178-3.1.728.728,0,0,0-1.38-.32c-.673.942-.959-.421-1.75-.421-.774,0-1.178,1.279-1.783.421a.8.8,0,0,0-1.481.32,9.144,9.144,0,0,0,1.144,3.146c-1.884,1.481-4.206,4.24-4.206,6.747,0,3.651,2.81,5.367,6.259,5.367s6.259-1.716,6.259-5.367C25.317,10.509,22.979,7.717,21.078,6.236Zm-3.8,3.5a.942.942,0,1,1-.942.942A.941.941,0,0,1,17.275,9.735Zm.252,5.03a.58.58,0,0,1-.387.168.511.511,0,0,1-.387-.168.538.538,0,0,1,0-.774l3.853-3.853a.538.538,0,0,1,.774,0,.553.553,0,0,1,0,.774Zm3.314.421a.942.942,0,1,1,.942-.942A.941.941,0,0,1,20.842,15.187Z" transform="translate(-12.8 -2.4)"/></svg>