<svg xmlns="http://www.w3.org/2000/svg" xmlns:xlink="http://www.w3.org/1999/xlink" width="201.578" height="171.823" viewBox="0 0 201.578 171.823"><defs><style>.a{fill:#f5f5fe;}.b{fill:#dbcdfe;}.c{fill:#0b2d4e;}.d{fill:#73b8d4;}.e{fill:#061f33;}.f{fill:#efb126;}.g{fill:#ffc73c;}.h{clip-path:url(#a);}.i{fill:#9b87ff;}.j{fill:#f8a17a;}.k{fill:#e5785c;}.l{fill:#8070f2;}.m{fill:#fff;}.n{fill:#af9fff;}.o{fill:#e1f4fd;}</style><clipPath id="a"><path d="M2594.354-2810.088c1.3-5.517,1.978-11.162-.975-14.919-1.333-1.7-3.709-2.879-5.653-3.72-3.792-1.639-7.669-3.842-11.729-4.557-4.28-.753-9.04-1.217-13.305-.14a31.608,31.608,0,0,0-7.667,3.317c-2.1,1.185-4.681,2.206-5.7,4.411a150.089,150.089,0,0,0-6.489,16.521c-1.523,4.685-3.2,9.6-.795,14.345.778,1.539,1.907,2.856,2.8,4.326a10.523,10.523,0,0,1,1.49,5.065c.3,4.31.181,8.632.169,12.948a8.229,8.229,0,0,0,.557,3.655c1.074,2.2,3.991,2.236,6.094,2.232l20.782-.036a35.583,35.583,0,0,1,7.791.9,4.778,4.778,0,0,0,5.325-2.8c1.034-2.006,1.113-4.348,1.224-6.6a142.554,142.554,0,0,1,3.711-26.041c.576-2.418,1.587-5.581,2.373-8.907" transform="translate(-2540.834 2834.059)"/></clipPath></defs><g transform="translate(-7529 -2277.317)"><g transform="translate(7544.665 2280.927)"><path class="a" d="M642.152-5978.625l-.18-.307c5.089-2.967,11.016-3.2,16.747-3.42,2.348-.091,4.775-.185,7.079-.471,10.784-1.335,18.734-8.279,21.264-18.575a28.455,28.455,0,0,0-6.731-26.233c-.327-.344-.662-.692-.986-1.03a41.426,41.426,0,0,1-6.22-7.589,16.366,16.366,0,0,1-2.045-5.812,18.881,18.881,0,0,1,.092-5.986,27.784,27.784,0,0,1,4.779-11.129c.66-.941,1.357-1.885,2.031-2.8a44.741,44.741,0,0,0,5.814-9.421,27.516,27.516,0,0,0,1.116-14.948c-1.593-8.958-6.646-17.022-13.515-21.574-8.914-5.9-18.339-4.619-28.318-3.26a94.581,94.581,0,0,1-12.657,1.148c-1.1,0-2.192-.04-3.28-.129a31.209,31.209,0,0,1-5.742-1.019,31.22,31.22,0,0,1-5.486-2.084,29.512,29.512,0,0,1-9.4-7.234c-7.424-8.62-17.584-13.35-27.344-13.35a27.989,27.989,0,0,0-12.241,2.748,35.98,35.98,0,0,0-17.393,19.446c-1.9,4.906-2.28,10.232-2.65,15.382-.347,4.824-.7,9.813-2.292,14.528a30.1,30.1,0,0,1-3.833,7.578,24.787,24.787,0,0,1-5.9,6.045c-5.933,4.208-9.968,8.249-12.7,12.715-3.942,6.45-4.823,14.086-2.3,19.929,1.807,4.182,5.316,6.855,8.709,9.439a47.139,47.139,0,0,1,5.131,4.308,15.684,15.684,0,0,1,3.675,5.607,16.686,16.686,0,0,1,.888,5.864,47.1,47.1,0,0,1-.982,8.043c-.81,4.484-1.647,9.122-.141,13.562.985,2.9,3.46,5.011,7.357,6.267a35.221,35.221,0,0,0,10.246,1.4c1.23.018,2.49.007,3.708,0,4.8-.04,9.77-.082,14.335,1.554l-.12.334c-4.506-1.614-9.44-1.573-14.212-1.533-1.22.01-2.483.021-3.716,0a35.578,35.578,0,0,1-10.35-1.416c-4.01-1.292-6.562-3.477-7.584-6.492-1.535-4.527-.69-9.21.128-13.739a46.8,46.8,0,0,0,.976-7.981,16.332,16.332,0,0,0-.867-5.74c-1.6-4.353-5.042-6.977-8.688-9.754-3.43-2.613-6.976-5.314-8.82-9.582a17.961,17.961,0,0,1-1.339-5.062,21.123,21.123,0,0,1,.068-5.248,25.908,25.908,0,0,1,3.592-9.945c2.755-4.508,6.821-8.582,12.8-12.82a27.343,27.343,0,0,0,9.6-13.445c1.573-4.673,1.929-9.638,2.274-14.441.372-5.176.756-10.529,2.673-15.484a36.34,36.34,0,0,1,17.57-19.639,28.054,28.054,0,0,1,10.708-2.76,31.729,31.729,0,0,1,10.8,1.311,39.675,39.675,0,0,1,18.5,12.139,30.288,30.288,0,0,0,20.383,10.214c5.237.428,10.638-.307,15.861-1.018a79.231,79.231,0,0,1,14.557-1.085,30.168,30.168,0,0,1,7.106,1.172,25.465,25.465,0,0,1,6.9,3.229,30.516,30.516,0,0,1,8.912,9.375,35.707,35.707,0,0,1,4.758,12.433,32.744,32.744,0,0,1,.479,7.667,23.386,23.386,0,0,1-1.616,7.477,45.026,45.026,0,0,1-5.858,9.5c-.673.912-1.368,1.854-2.027,2.792-5.452,7.774-6.5,16.2-2.809,22.543a41.193,41.193,0,0,0,6.169,7.523c.325.337.661.687.989,1.031a27.864,27.864,0,0,1,6.759,12.411,29.406,29.406,0,0,1,.058,14.152,25.811,25.811,0,0,1-2.957,7.216,23.727,23.727,0,0,1-4.778,5.673,25.845,25.845,0,0,1-13.831,5.955c-2.319.287-4.754.381-7.109.473-5.688.221-11.57.45-16.581,3.372" transform="translate(-518.076 6134.223)"/></g><g transform="translate(7547.444 2285.861)"><path class="a" d="M616.128-5903.69c-4.355,6.193-7.716,14.618-5.384,22.4,2.325,7.752,9.76,12.533,13.009,19.9,1.836,4.162,1.885,8.739,1.955,13.207.091,5.849-1.052,12.059,2.9,17,2.338,2.924,5.866,4.651,9.434,5.786,7.165,2.279,14.671,3.349,21.035,7.653,10.456,7.072,23.3,9.544,35.755,8.781a80.972,80.972,0,0,0,18.637-3.424c7.033-2.146,13.283-5.946,20.363-7.981,12.273-3.527,29.052-3.576,36.233-15.991,4.835-8.359,6.509-18.691,2.748-27.8-1.789-4.331-5.2-7.638-7.146-11.89a27.275,27.275,0,0,1-1.615-18.812c.074-.257.152-.513.233-.767,1.875-5.834,5.649-10.85,7.211-16.79,3.222-12.261-3.9-25.226-13.259-33.106a39.625,39.625,0,0,0-12.97-7.554c-6.577-2.159-13.524-1.972-20.471-1.785-6.843.185-13.688.371-20.185-1.687-10.046-3.179-18.294-11.446-28.53-13.835a28.736,28.736,0,0,0-23.048,4.924,37.222,37.222,0,0,0-13.741,20.589c-2.048,7.667-1.984,16.089-5.616,23.055-3.108,5.958-8.867,9.173-13.543,13.5a29.14,29.14,0,0,0-4,4.633" transform="translate(-609.981 5971.071)"/></g><g transform="translate(7645.509 2277.317)"><path class="a" d="M3916.838-6239.4a2.185,2.185,0,0,0-1.826-2.094c-.4.009-.8.114-1.2.094a2.61,2.61,0,0,1-2.042-1.579,2.357,2.357,0,0,0-2.281-1.3c-1.5.253-2.264,2.238-3.974.747-1.12-.976-1.2-2.34-2.471-3.286a4.133,4.133,0,0,0-3.453-.675c-1.522.468-2.089,1.979-3.71,2.241a3.738,3.738,0,0,1-3.659-2.061c-.7-1.195-.954-2.487-1.55-3.7a4.078,4.078,0,0,0-3.648-2.6c-1.68.028-2.42,1.092-3.245,1.937-1.073,1.1-3.3,5.042-5.8,4.566-.974-.186-1.461-.959-2.341-1.307a4,4,0,0,0-4.068,1.173c-.852.963-1.189,2.127-2.152,3.039a2.225,2.225,0,0,1-.942.564c-1.346.368-2.6-.763-4.037-.848a3.351,3.351,0,0,0-2.487.978,12.39,12.39,0,0,0-1.32,1.867,1.386,1.386,0,0,1-.48.468,3.839,3.839,0,0,1-2.294-.08c-1.911-.329-4.083.549-4.622,1.868h63.606" transform="translate(-3853.231 6253.628)"/></g><g transform="translate(7534.832 2313.981)"><path class="a" d="M225.583-5033.739a1.122,1.122,0,0,0-.939-1.077c-.207,0-.41.058-.617.048a1.341,1.341,0,0,1-1.05-.811,1.21,1.21,0,0,0-1.173-.67c-.774.129-1.164,1.15-2.043.384-.576-.5-.619-1.2-1.271-1.689a2.127,2.127,0,0,0-1.775-.347c-.783.24-1.074,1.017-1.907,1.151a1.922,1.922,0,0,1-1.882-1.059c-.358-.615-.49-1.279-.8-1.9a2.1,2.1,0,0,0-1.875-1.337,2.249,2.249,0,0,0-1.668,1c-.551.565-1.7,2.592-2.983,2.347-.5-.1-.751-.493-1.2-.671a2.054,2.054,0,0,0-2.092.6c-.438.5-.612,1.094-1.106,1.562a1.139,1.139,0,0,1-.485.292c-.691.189-1.335-.394-2.075-.437a1.724,1.724,0,0,0-1.278.5,6.351,6.351,0,0,0-.678.959.713.713,0,0,1-.247.24,1.978,1.978,0,0,1-1.179-.041,2.268,2.268,0,0,0-2.376.96h32.7" transform="translate(-192.885 5041.052)"/></g><g transform="translate(7702.642 2374.181)"><path class="b" d="M5742.712-2983.943h14.7v-66.175h-14.7v66.175" transform="translate(-5742.712 3050.118)"/></g><g transform="translate(7680.457 2394.49)"><path class="b" d="M5031.206-2332.587h-22.185v-45.866h22.185v45.866" transform="translate(-5009.021 2378.453)"/></g><g transform="translate(7708.393 2408.144)"><path class="b" d="M5955.126-1894.66h-22.185v-32.211h22.185v32.211" transform="translate(-5932.942 1926.872)"/></g><g transform="translate(7702.641 2370.946)"><path class="b" d="M5742.707-3153.865h11.938v-3.235h-11.938v3.235" transform="translate(-5742.707 3157.1)"/></g><g transform="translate(7702.642 2367.711)"><path class="b" d="M5742.71-3260.839h9.768v-3.234h-9.768v3.234" transform="translate(-5742.71 3264.074)"/></g><g transform="translate(7702.641 2364.477)"><path class="b" d="M5742.7-3367.814h7.7v-3.235h-7.7v3.235" transform="translate(-5742.701 3371.048)"/></g><g transform="translate(7644.605 2374.181)"><path class="b" d="M3823.325-2983.945h14.7v-66.175h-14.7v66.175" transform="translate(-3823.325 3050.12)"/></g><g transform="translate(7684.82 2352.756)"><path class="b" d="M5153.315-3671.092h14.7v-87.6h-14.7v87.6" transform="translate(-5153.315 3758.692)"/></g><g transform="translate(7615.203 2414.748)"><path class="b" d="M2850.929-1682.853h29.4v-25.607h-29.4v25.607" transform="translate(-2850.929 1708.46)"/></g><g transform="translate(7651.956 2342.423)"><path class="b" d="M4066.421-4002.491h29.535v-97.933h-29.535v97.933" transform="translate(-4066.421 4100.424)"/></g><g transform="translate(7644.605 2370.946)"><path class="b" d="M3823.317-3153.87h11.939v-3.235h-11.939v3.235" transform="translate(-3823.317 3157.105)"/></g><g transform="translate(7644.605 2367.712)"><path class="b" d="M3823.322-3260.834h9.768v-3.234h-9.768v3.234" transform="translate(-3823.322 3264.069)"/></g><g transform="translate(7644.605 2364.477)"><path class="b" d="M3823.33-3367.8h7.7v-3.235h-7.7v3.235" transform="translate(-3823.33 3371.039)"/></g><g transform="translate(7616.438 2374.181)"><path class="b" d="M2891.781-2983.936h14.7v-66.175h-14.7v66.175" transform="translate(-2891.781 3050.111)"/></g><g transform="translate(7631.14 2385.367)"><path class="b" d="M3392.7-2625.177H3378v-54.988h14.7v54.988" transform="translate(-3377.997 2680.166)"/></g><g transform="translate(7594.253 2359.341)"><path class="b" d="M2180.275-3459.9h-22.184v-81.015h22.184v81.015" transform="translate(-2158.091 3540.916)"/></g><g transform="translate(7616.438 2370.946)"><path class="b" d="M2891.778-3153.872h11.939v-3.235h-11.939v3.235" transform="translate(-2891.778 3157.106)"/></g><g transform="translate(7616.438 2367.711)"><path class="b" d="M2891.793-3260.843h9.768v-3.234h-9.768v3.234" transform="translate(-2891.793 3264.078)"/></g><g transform="translate(7616.438 2364.477)"><path class="b" d="M2891.781-3367.814h7.7v-3.234h-7.7v3.234" transform="translate(-2891.781 3371.049)"/></g><g transform="translate(7558.402 2374.181)"><path class="b" d="M972.406-2983.939h14.7v-66.174h-14.7v66.174" transform="translate(-972.406 3050.114)"/></g><g transform="translate(7543.701 2385.367)"><path class="b" d="M486.2-2625.16h14.7v-54.988H486.2v54.988" transform="translate(-486.202 2680.148)"/></g><g transform="translate(7576.565 2376.19)"><path class="b" d="M1573.073-2919.488h14.7v-64.165h-14.7v64.165" transform="translate(-1573.073 2983.653)"/></g><path class="b" d="M0-1886.091H14.7v-31.944H0v31.944" transform="translate(7529 4326.447)"/><g transform="translate(7565.753 2392.038)"><path class="b" d="M1215.509-2411.216h29.535v-48.317h-29.535v48.317" transform="translate(-1215.509 2459.533)"/></g><g transform="translate(7558.403 2370.946)"><path class="b" d="M972.408-3153.871h11.938v-3.235H972.408v3.235" transform="translate(-972.408 3157.106)"/></g><path class="b" d="M447.046-1321.9h11.939v-3.234H447.046v3.234" transform="translate(7095.472 3751.469)"/><g transform="translate(7558.402 2367.711)"><path class="b" d="M972.407-3260.843h9.768v-3.234h-9.768v3.234" transform="translate(-972.407 3264.078)"/></g><g transform="translate(7558.402 2364.477)"><path class="b" d="M972.407-3367.814h7.7v-3.234h-7.7v3.234" transform="translate(-972.407 3371.049)"/></g><g transform="translate(7621.873 2391.567)"><path class="b" d="M3071.519-2471.883h19.327v-3.234h-19.327v3.234" transform="translate(-3071.519 2475.118)"/></g><g transform="translate(7621.873 2403.157)"><path class="b" d="M3071.519-2088.556h19.327v-3.235h-19.327v3.235" transform="translate(-3071.519 2091.791)"/></g><g transform="translate(7621.873 2414.748)"><path class="b" d="M3071.519-1705.226h19.327v-3.234h-19.327v3.234" transform="translate(-3071.519 1708.46)"/></g><path class="b" d="M621.656-1705.228h19.327v-3.234H621.656v3.234" transform="translate(6926.141 4123.21)"/><path class="b" d="M621.656-1321.9h19.327v-3.234H621.656v3.234" transform="translate(6926.141 3751.469)"/><g transform="translate(7603.946 2330.028)"><path class="c" d="M2542.3-4428.778c-5.549,1.964-12.242,1.763-17.291-1.476-4.963-3.184-9.485-5.483-15.592-5.372-5.456.1-9.969,3.049-15.253,3.677a14.517,14.517,0,0,1-11.488-4.26c-2.966-2.86-4.935-7.223-3.646-11.136.675-2.049,2.15-3.74,2.993-5.726,1.942-4.581-3.171-7.345-1.9-12.167,1.082-4.1,5.582-7.026,5.515-11.268-.049-3.1-2.452-5.51-3.3-8.382a11.4,11.4,0,0,1,.841-8.79,10.511,10.511,0,0,1,4.945-4.416c1.85-.787,3.918-.8,5.348-2.419,2.549-2.882,3.485-6,6.983-8.112,2.961-1.782,6.873-1.9,10.271-1.584a26.047,26.047,0,0,1,19.13,11.024,13.194,13.194,0,0,1,2.634,7.225c.041,2.922.04,5.861,1.831,8.347,1.5,2.086,3.917,3.307,6.31,4.248s4.9,1.7,7,3.186,3.77,3.9,3.524,6.461c-.205,2.143-1.687,4-1.885,6.147-.359,3.9,3.4,6.728,5.709,9.883a15.354,15.354,0,0,1,1.34,15.572c-2.808,5.649-7.91,6.923-13.256,9.049q-.378.15-.765.287" transform="translate(-2478.63 4510.343)"/></g><g transform="translate(7627.272 2337.073)"><path class="d" d="M3250.079-4275.7a13.087,13.087,0,0,1,6.087-1.648,22.656,22.656,0,0,1,6.322.706,19.472,19.472,0,0,1,10.543,6.9,17.425,17.425,0,0,1,2.9,5.711,21.975,21.975,0,0,1,.7,6.368c-.021,2.127-.172,4.243-.1,6.335a11.346,11.346,0,0,0,.489,3.046,4.783,4.783,0,0,0,1.647,2.438,5.752,5.752,0,0,0,2.821.973c1.026.121,2.1.128,3.165.27a14.426,14.426,0,0,1,6.108,2,5.378,5.378,0,0,1,2.116,2.511,5.394,5.394,0,0,1,.053,3.287,22.82,22.82,0,0,1-1.351,2.909,9.292,9.292,0,0,0-.788,2.978,13.871,13.871,0,0,0,1.072,6.108,56.917,56.917,0,0,1,2.1,6.01,12.777,12.777,0,0,1,.382,3.177,10.02,10.02,0,0,1-.556,3.144,10.768,10.768,0,0,1-3.7,5.073,10.689,10.689,0,0,0,3.563-5.12,10.714,10.714,0,0,0,.028-6.2,58.08,58.08,0,0,0-2.17-5.947,14.291,14.291,0,0,1-1.178-6.283,9.756,9.756,0,0,1,.79-3.145,23.607,23.607,0,0,0,1.311-2.849,4.856,4.856,0,0,0-.053-2.948,4.837,4.837,0,0,0-1.92-2.246,13.891,13.891,0,0,0-5.872-1.884c-1.031-.135-2.085-.135-3.163-.256a6.32,6.32,0,0,1-3.113-1.075,5.382,5.382,0,0,1-1.85-2.74,11.932,11.932,0,0,1-.5-3.208c-.062-2.143.1-4.258.129-6.365a21.439,21.439,0,0,0-.65-6.219,17.569,17.569,0,0,0-2.769-5.575,19.136,19.136,0,0,0-10.247-6.893,22.461,22.461,0,0,0-6.243-.844,13.024,13.024,0,0,0-6.091,1.5" transform="translate(-3250.079 4277.362)"/></g><g transform="translate(7612.085 2346.156)"><path class="e" d="M2789.73-3937.427c.2,4.789-.913,8.386-5.292,10.754a25.764,25.764,0,0,1-11.514,2.6c-6.456.159-13.649-1.506-18.478-6.041a4.785,4.785,0,0,1-1.781-3.032c-.057-1.091.543-2.12.6-3.211.089-1.841-1.342-3.366-1.982-5.095-.845-2.282-.271-4.831.489-7.145s1.709-4.647,1.595-7.08c-.147-3.154-2.043-5.908-3.56-8.677s-2.713-6.138-1.415-9.018a6.443,6.443,0,0,1,4.975-3.587c2.2-.245,4.176,2.269,5.585,3.654a34.485,34.485,0,0,0,6.282,4.886c3.144,1.908,6.595,3.315,9.551,5.5a13.444,13.444,0,0,1,4.563,5.246c.962,2.375-.724,4.673,1.315,6.857,1.315,1.409,3.334,1.888,4.924,2.978,3.4,2.331,3.993,6.629,4.148,10.41" transform="translate(-2747.833 3976.974)"/></g><g transform="translate(7589.164 2386.865)"><path class="f" d="M2018.922-2604.99c4.533-6.985,7.353-15.558,3.415-23.445a3.463,3.463,0,0,0-1.727-1.953,7.911,7.911,0,0,0-5.882.976c-5.5,3.227-8.865,9.3-11.955,14.7-3.21,5.613-6,11.456-9.224,17.06a31.322,31.322,0,0,0-3.326,7.094,11.221,11.221,0,0,0,.156,6.9c3.621,9.351,13.578-2.1,16.61-5.564a138.307,138.307,0,0,0,11.935-15.774" transform="translate(-1989.755 2630.624)"/></g><g transform="translate(7605.827 2380.714)"><path class="g" d="M2594.353-2810.085c1.3-5.517,1.978-11.162-.974-14.92-1.333-1.7-3.709-2.879-5.653-3.719-3.792-1.64-7.669-3.843-11.728-4.557-4.281-.752-9.04-1.217-13.305-.139a31.572,31.572,0,0,0-7.667,3.316c-2.1,1.186-4.682,2.206-5.7,4.412a150.138,150.138,0,0,0-6.488,16.521c-1.523,4.685-3.2,9.6-.8,14.345.778,1.538,1.907,2.855,2.8,4.325a10.522,10.522,0,0,1,1.49,5.065c.3,4.31.181,8.633.169,12.948a8.218,8.218,0,0,0,.557,3.655c1.074,2.2,3.992,2.236,6.094,2.232l20.783-.036a35.6,35.6,0,0,1,7.791.9,4.778,4.778,0,0,0,5.325-2.8c1.034-2.006,1.113-4.349,1.224-6.6a142.574,142.574,0,0,1,3.711-26.042c.576-2.418,1.588-5.581,2.373-8.907" transform="translate(-2540.834 2834.055)"/></g><g transform="translate(7605.827 2380.714)"><g class="h" transform="translate(0 0)"><g transform="translate(17.382 -2.27)"><path class="f" d="M3135.8-2898.94c1.631-2.743,2-6.17-.135-8.813-.977-1.208-2.7-1.344-4.181-1.372a35.146,35.146,0,0,0-8.654.918c-2.7.631-5.45,1.7-6.62,4.426a6.818,6.818,0,0,0,.579,6.219,7.661,7.661,0,0,0,4.688,3.385,16.224,16.224,0,0,0,9.706-.6,10.135,10.135,0,0,0,4.618-4.158" transform="translate(-3115.709 2909.132)"/></g><g transform="translate(2.992 26.237)"><path class="f" d="M2692.765-1943.318q-.032-6.346-.064-12.691c-.007-1.473.949-10.437-1.342-10.335a1.3,1.3,0,0,0-.675.282,7.577,7.577,0,0,0-2.258,3.477c-1.669,4.063-3.072,10.569-6.547,13.414-3.533,2.892-8.966,4.111-13.356,4.805-5.128.81-10.339.87-15.52,1.186-3.352.2-7.05.687-9.251,3.222-1.572,1.81-2.373,4.524-3.212,6.736-.734,1.933-1.318,4.229.171,5.98a6.946,6.946,0,0,0,2.4,1.656,39.107,39.107,0,0,0,10.294,2.882,140.725,140.725,0,0,0,29.917,1.519c2.136-.1,4.453-.315,6.029-1.761a8.308,8.308,0,0,0,2.118-4.2c1.339-5.254,1.32-10.746,1.292-16.168" transform="translate(-2639.783 1966.345)"/></g></g></g><g transform="translate(7612.969 2356.256)"><path class="i" d="M2778.644-3641.448c-3.781,3.89-.352,13.393,5.676,12.018,6.479-1.478,5.5-11.573-.354-13.23a5.118,5.118,0,0,0-5.322,1.212" transform="translate(-2777.061 3642.922)"/></g><g transform="translate(7602.555 2328.265)"><path class="c" d="M2496.19-4485.653a24.7,24.7,0,0,0,3.12.2,17.662,17.662,0,0,0,8.222-1.855,12.085,12.085,0,0,0,4.982-4.752,13.871,13.871,0,0,0,1.734-6.655c0-.151,0-.3,0-.455a19.539,19.539,0,0,0-.607-5,12.906,12.906,0,0,0-2.14-4.519,16.643,16.643,0,0,0-1.957-2.107c-1.053-.979-2.171-1.883-3.147-2.857a13.121,13.121,0,0,1-1.334-1.529,8.084,8.084,0,0,1-.981-1.734,7.129,7.129,0,0,1-.5-2.647,6.6,6.6,0,0,1,.376-2.233,4.828,4.828,0,0,1,1.165-1.839,8,8,0,0,0,1.407-1.727,4.629,4.629,0,0,0,.436-1.014,4.085,4.085,0,0,0,.161-1.14q0-.187-.017-.38h0a6.8,6.8,0,0,0-.455-1.884,9.2,9.2,0,0,0-1.529-2.526,10.144,10.144,0,0,0-2.15-1.926,17.09,17.09,0,0,0-4.9-2.14,36.74,36.74,0,0,0-5.227-.985,14.25,14.25,0,0,1-1.676-.3,7.284,7.284,0,0,1-1.146-.389,4.289,4.289,0,0,1-1.4-.957,3.766,3.766,0,0,1-.878-1.579,8.945,8.945,0,0,1-.3-2c-.038-.687-.037-1.388-.073-2.091-.154-2.958-.372-5.923-.815-8.865a13.824,13.824,0,0,0-1.886-4.984,20.091,20.091,0,0,0-3.348-4.152q-.535-.509-1.11-.974a22.028,22.028,0,0,0-6.918-3.66,26.366,26.366,0,0,0-8.178-1.334,21.209,21.209,0,0,0-5.406.67,15.509,15.509,0,0,0-4.769,2.128,11.065,11.065,0,0,0-4.684,7.1,5.9,5.9,0,0,1-.3,1.1,2.115,2.115,0,0,1-.3.526,1.71,1.71,0,0,1-.294.291,2.863,2.863,0,0,1-.643.363,10.261,10.261,0,0,1-.969.345c-1.662.516-3.453.96-5.174,1.588a17.877,17.877,0,0,0-2.5,1.115,11.288,11.288,0,0,0-2.242,1.593,8.873,8.873,0,0,0-2.168,3.149,9.868,9.868,0,0,0-.733,3.744q0,.489.048.978a7.97,7.97,0,0,0,.646,2.461,10.013,10.013,0,0,0,.857,1.534c.483.721,1.032,1.389,1.581,2.07a23.089,23.089,0,0,1,1.589,2.154,5,5,0,0,1,.6,1.353,5.319,5.319,0,0,1,.187,1.42,7.482,7.482,0,0,1-.713,3.049,10.847,10.847,0,0,1-1.768,2.7,17.06,17.06,0,0,1-1.294,1.28c-.686.624-1.4,1.237-2.046,1.917a9.371,9.371,0,0,0-.89,1.083,6.4,6.4,0,0,0-.682,1.248,6.155,6.155,0,0,0-.435,2.326,8.52,8.52,0,0,0,.333,2.286,11.713,11.713,0,0,0,.849,2.153c.211.415.438.816.656,1.213s.427.794.6,1.2a8.955,8.955,0,0,1,.736,3.579,9.017,9.017,0,0,1-1.029,4.213l.534.283a9.621,9.621,0,0,0,1.1-4.5,9.552,9.552,0,0,0-.786-3.822c-.189-.432-.406-.843-.627-1.247s-.444-.8-.648-1.2a11.225,11.225,0,0,1-.806-2.042,7.951,7.951,0,0,1-.31-2.124,5.567,5.567,0,0,1,.391-2.1,6.1,6.1,0,0,1,.876-1.477,15.773,15.773,0,0,1,1.894-1.924,25.413,25.413,0,0,0,2.034-1.95,11.486,11.486,0,0,0,1.867-2.855,8.073,8.073,0,0,0,.767-3.3,5.935,5.935,0,0,0-.208-1.58,5.6,5.6,0,0,0-.671-1.515,21.7,21.7,0,0,0-1.445-1.981,25.741,25.741,0,0,1-2.029-2.722,8.223,8.223,0,0,1-.718-1.5,7.365,7.365,0,0,1-.39-1.756q-.045-.457-.045-.917a9.268,9.268,0,0,1,.688-3.514,8.258,8.258,0,0,1,2.02-2.935,10.735,10.735,0,0,1,2.123-1.508,20.446,20.446,0,0,1,3.694-1.509c1.288-.408,2.606-.754,3.87-1.147a9.157,9.157,0,0,0,1.19-.439,3.155,3.155,0,0,0,.664-.409,2.265,2.265,0,0,0,.385-.4,2.931,2.931,0,0,0,.407-.789,7.138,7.138,0,0,0,.267-1.056,10.461,10.461,0,0,1,4.43-6.708,14.875,14.875,0,0,1,4.584-2.043,20.57,20.57,0,0,1,5.25-.65,25.779,25.779,0,0,1,7.988,1.3,21.432,21.432,0,0,1,6.728,3.557c.369.3.728.614,1.073.942a19.419,19.419,0,0,1,3.247,4.024,13.207,13.207,0,0,1,1.806,4.764c.44,2.912.656,5.856.809,8.806.036.682.035,1.384.073,2.093a9.561,9.561,0,0,0,.322,2.13,4.407,4.407,0,0,0,.872,1.664,4.442,4.442,0,0,0,.979.852,6.535,6.535,0,0,0,1.787.772,13.789,13.789,0,0,0,1.964.375,36.412,36.412,0,0,1,5.141.968,16.5,16.5,0,0,1,4.725,2.063,9.626,9.626,0,0,1,2.584,2.552,8.1,8.1,0,0,1,.865,1.617,6.21,6.21,0,0,1,.416,1.715h0c.01.111.014.221.014.328a3.481,3.481,0,0,1-.137.971,4.339,4.339,0,0,1-.647,1.3,8.456,8.456,0,0,1-1.036,1.176,5.441,5.441,0,0,0-1.313,2.067,7.186,7.186,0,0,0-.412,2.44,7.754,7.754,0,0,0,.546,2.875,9.183,9.183,0,0,0,1.488,2.421,27.955,27.955,0,0,0,3.067,2.967,20.991,20.991,0,0,1,2.942,2.978,12.326,12.326,0,0,1,2.038,4.309,18.952,18.952,0,0,1,.587,4.844c0,.148,0,.3,0,.443a13.282,13.282,0,0,1-1.655,6.366,11.471,11.471,0,0,1-4.736,4.516,17.058,17.058,0,0,1-7.942,1.787,24.068,24.068,0,0,1-3.043-.2l-.077.6" transform="translate(-2432.631 4568.643)"/></g><g transform="translate(7646.383 2386.612)"><path class="g" d="M3912.646-2609.138q1.74,3.136,3.442,6.291c2.295,4.276,6.556,13.778-.266,16.125-3.437,1.182-5.4.026-7.675-2.478a144.733,144.733,0,0,1-21.733-31.485c-2.161-4.24-7.9-15.291-.93-17.817a8.467,8.467,0,0,1,6.8.5,13.654,13.654,0,0,1,2.578,1.9c5.031,4.487,8.614,10.277,11.8,16.148,1.969,3.629,3.987,7.218,5.981,10.816" transform="translate(-3882.137 2638.992)"/></g><g transform="translate(7625.094 2368.17)"><path class="j" d="M3190.35-3227.029a6.345,6.345,0,0,0,4.426-4.007c.582-1.862-.335-3.957-.5-5.834a35.534,35.534,0,0,1-.058-5.414,23.476,23.476,0,0,0,.012-5.064c-.146-.949-.667-.787-1.627-1.164a8.367,8.367,0,0,0-3.081-.379c-2.137.006-7.708-.149-9.028,1.725a5.272,5.272,0,0,0-.683,2.969c-.035,1.238-.254,2.84-.457,4.566-.09.769-.034,1.535-.152,2.3a14.443,14.443,0,0,1-.74,2.493,5.567,5.567,0,0,0,3.28,7.459,13.228,13.228,0,0,0,8.607.353" transform="translate(-3178.05 3248.892)"/></g><g transform="translate(7625.702 2368.17)"><path class="k" d="M3213.732-3247.349c-.146-.95-.667-.788-1.628-1.165a8.379,8.379,0,0,0-3.082-.378c-2.137.005-7.707-.15-9.028,1.725a5.274,5.274,0,0,0-.683,2.969c-.035,1.238-.254,2.84-.457,4.566-.09.769-.034,1.534-.152,2.3a10.576,10.576,0,0,1-.534,1.906,11.32,11.32,0,0,0,6.573.409,14.993,14.993,0,0,0,8.943-6.531c.011-.245.018-.49.034-.735a23.407,23.407,0,0,0,.013-5.063" transform="translate(-3198.17 3248.893)"/></g><g transform="translate(7615.944 2340.577)"><path class="j" d="M2903.88-4144.533a26.107,26.107,0,0,0-1.145-7.809c-3.168-9.7-15.265-12.094-22.55-5.133-8.124,7.763-5.015,26.324,3.542,32.845a9.6,9.6,0,0,0,8.175,1.61c8.408-2.254,12.032-12.6,11.978-21.514" transform="translate(-2875.458 4161.472)"/></g><g transform="translate(7640.03 2357.29)"><path class="j" d="M3674.771-3608.276c3.723-2.035,4.868,3.118,4.228,5.683a8.175,8.175,0,0,1-1.34,2.963c-.885,1.174-3.418,3.121-4.877,1.837a3.261,3.261,0,0,1-.75-2.455c-.055-2.364.218-6.649,2.74-8.029" transform="translate(-3672.025 3608.741)"/></g><g transform="translate(7627.903 2367.89)"><path class="l" d="M3273.694-3251.331a18.863,18.863,0,0,1-2.75-.2l.164-1.116a16.952,16.952,0,0,0,9.634-1.345,12.483,12.483,0,0,0,2.085-1.2,9.84,9.84,0,0,0,2.7-2.977l.974.57a10.975,10.975,0,0,1-3.012,3.321,13.508,13.508,0,0,1-2.272,1.308,17.849,17.849,0,0,1-7.522,1.641" transform="translate(-3270.943 3258.17)"/></g><g transform="translate(7624.002 2371.698)"><path class="l" d="M3142.567-3131.415c1.361-1.167,4.388-1.068,5.386.145a1.987,1.987,0,0,1-.3,2.8,3.463,3.463,0,0,1-3.356.576c-1.5-.339-3.369-2.112-1.729-3.52" transform="translate(-3141.929 3132.238)"/></g><g transform="translate(7616.913 2340.495)"><path class="k" d="M2934.956-4154.574c-3.335-10.21-16.072-12.732-23.742-5.4a15.115,15.115,0,0,0-3.731,6.013,7.188,7.188,0,0,0,.592.8,11.406,11.406,0,0,0,3.966,2.69,57.045,57.045,0,0,0,13.494,4c.341.063.683.127,1.025.194a11.453,11.453,0,0,1,3.648,1.22c3.142,1.852,1.791,5.926,4.093,7.711a2.192,2.192,0,0,0,.629.34,34.373,34.373,0,0,0,1.23-9.338,27.5,27.5,0,0,0-1.205-8.221" transform="translate(-2907.483 4164.186)"/></g><g transform="translate(7618.243 2337.172)"><path class="c" d="M2969.555-4254.014a11.45,11.45,0,0,1,3.406,1.786c2.807,2.33.823,6.135,2.811,8.265,1.761,1.888,4.436-.606,5.136-2.349,1.29-3.21,1.215-6.784,1.119-10.241a21.5,21.5,0,0,0-.676-5.731,14.1,14.1,0,0,0-3.249-5.352,20.843,20.843,0,0,0-16.4-6.394c-4.72.3-13,4.263-9.3,10.272a11.4,11.4,0,0,0,3.486,3.29,57.056,57.056,0,0,0,12.685,6.1c.326.117.654.234.981.355" transform="translate(-2951.478 4274.071)"/></g><g transform="translate(7639.363 2356.132)"><path class="i" d="M3654.923-3646.885c-5.253,1.347-7.284,11.244-1.423,13.214,6.3,2.117,10.73-7,6.6-11.473a5.119,5.119,0,0,0-5.174-1.741" transform="translate(-3649.945 3647.042)"/></g><g transform="translate(7642.011 2357.522)"><path class="l" d="M3741.575-3601.033c-3.627.583-5.861,8.288-2.123,10.409,4.016,2.279,7.785-4.583,5.423-8.535a3.221,3.221,0,0,0-3.3-1.873" transform="translate(-3737.523 3601.069)"/></g><g transform="translate(7619.956 2332.055)"><path class="i" d="M3034.965-4418.394l-1.4-.162c.95-8.214.545-18.709-6.781-22.061-3.47-1.587-13.406-3.349-17.779,2.553-.526.591-.878,1.085-.878,1.085,2.712-8.368,15.5-6.634,19.243-4.92,8.1,3.705,8.6,14.826,7.6,23.505" transform="translate(-3008.127 4443.32)"/></g><g transform="translate(7529 2439.877)"><path class="m" d="M0-877.384H201.5v9.262H0v-9.262" transform="translate(0 877.384)"/></g><g transform="translate(7591.656 2434.29)"><path class="i" d="M2100.861-1062.173h-28.678v5.614h28.678v-5.614" transform="translate(-2072.184 1062.173)"/></g><g transform="translate(7535.294 2396.313)"><path class="i" d="M269.455-2279.616l-7.238-36.846a2.074,2.074,0,0,0-2.036-1.675H212.069a2.057,2.057,0,0,0-1.668.855l-.006-.006-2.222,2.627,1.971-.432,7.126,36.277a2.076,2.076,0,0,0,2.036,1.676h48.113a2.075,2.075,0,0,0,2.036-2.476" transform="translate(-208.173 2318.137)"/></g><g transform="translate(7534.914 2398.908)"><path class="c" d="M204.917-2191.337H253.03a2.075,2.075,0,0,0,2.036-2.475l-7.238-36.846a2.075,2.075,0,0,0-2.036-1.675H197.679a2.075,2.075,0,0,0-2.036,2.475l7.238,36.846a2.075,2.075,0,0,0,2.036,1.675" transform="translate(-195.603 2232.334)"/></g><path class="i" d="M1001.792-1728.935a5.618,5.618,0,0,0,5.3,4.5,3.607,3.607,0,0,0,3.632-4.5,5.681,5.681,0,0,0-5.3-4.5,3.639,3.639,0,0,0-3.632,4.5" transform="translate(6557.57 4147.429)"/><g transform="translate(7694.204 2391.492)"><path class="m" d="M5466.989-2451.177a4.357,4.357,0,0,0,.1-3.293,12.787,12.787,0,0,0-1.516-2.995,13.588,13.588,0,0,1-1.662-3.375,7.258,7.258,0,0,1,.082-4.04c.79-2.547,2.409-4.423,3.523-6.343a9.1,9.1,0,0,0,1.2-3.05,5.24,5.24,0,0,0-.4-3.319,4.79,4.79,0,0,1,1.428,3.377,8.589,8.589,0,0,1-.755,3.714c-.968,2.312-2.419,4.189-2.983,6.219a5.458,5.458,0,0,0-.171,2.952,16.1,16.1,0,0,0,1.183,3.1,10.774,10.774,0,0,1,1.08,3.57,4.177,4.177,0,0,1-1.108,3.482" transform="translate(-5463.662 2477.591)"/></g><g transform="translate(7690.875 2419.306)"><path class="i" d="M5364.128-1537.24h-6.756a3.771,3.771,0,0,1-3.771-3.771v-16.709h14.3v16.709a3.771,3.771,0,0,1-3.771,3.771" transform="translate(-5353.602 1557.72)"/></g><g transform="translate(7699.964 2423.938)"><path class="i" d="M5660.39-1394.167a4.023,4.023,0,0,1-3.994-4.053,4.023,4.023,0,0,1,3.994-4.053,4.023,4.023,0,0,1,3.994,4.053A4.023,4.023,0,0,1,5660.39-1394.167Zm0-10.352a6.254,6.254,0,0,0-6.208,6.3,6.254,6.254,0,0,0,6.208,6.3,6.254,6.254,0,0,0,6.208-6.3,6.254,6.254,0,0,0-6.208-6.3" transform="translate(-5654.182 1404.519)"/></g><g transform="translate(7692.241 2420.5)"><path class="n" d="M5399.51-1506.734a.775.775,0,0,1-.772-.773v-9.967a.775.775,0,0,1,.772-.773.775.775,0,0,1,.773.773v9.967a.775.775,0,0,1-.773.773" transform="translate(-5398.737 1518.247)"/></g><g transform="translate(7698.251 2419.306)"><path class="l" d="M5601.148-1557.72v16.86a3.621,3.621,0,0,1-3.621,3.621h3.3a3.621,3.621,0,0,0,3.621-3.621v-16.86h-3.3" transform="translate(-5597.527 1557.72)"/></g><g transform="translate(7662.88 2308.994)"><path class="l" d="M4432.764-5170.426h48.525a5.044,5.044,0,0,0,5.028-5.029v-25.515a5.044,5.044,0,0,0-5.028-5.029h-48.525a5.043,5.043,0,0,0-5.027,5.029v25.515a5.043,5.043,0,0,0,5.027,5.029" transform="translate(-4427.736 5205.999)"/></g><g transform="translate(7670.591 2337.583)"><path class="l" d="M4682.744-4244.153V-4260.5l12.8,6.983-12.8,9.364" transform="translate(-4682.744 4260.5)"/></g><g transform="translate(7671.803 2325.279)"><path class="o" d="M4750.262-4664.32h-25.9a1.556,1.556,0,0,1-1.553-1.552,1.556,1.556,0,0,1,1.553-1.551h25.9a1.556,1.556,0,0,1,1.552,1.551,1.556,1.556,0,0,1-1.552,1.552" transform="translate(-4722.813 4667.423)"/></g><g transform="translate(7703.034 2325.278)"><path class="o" d="M5763.634-4664.33h-6.4a1.556,1.556,0,0,1-1.551-1.552,1.556,1.556,0,0,1,1.551-1.552h6.4a1.556,1.556,0,0,1,1.552,1.552h0a1.556,1.556,0,0,1-1.552,1.552" transform="translate(-5755.681 4667.434)"/></g><g transform="translate(7683.539 2318.231)"><path class="o" d="M5112.506-4900.516h25.9a1.556,1.556,0,0,1,1.551,1.552,1.556,1.556,0,0,1-1.551,1.552h-25.9a1.556,1.556,0,0,1-1.551-1.552,1.556,1.556,0,0,1,1.551-1.552" transform="translate(-5110.955 4900.516)"/></g><g transform="translate(7671.803 2318.231)"><path class="o" d="M4724.374-4900.513h6.4a1.556,1.556,0,0,1,1.552,1.552,1.556,1.556,0,0,1-1.552,1.551h-6.4a1.556,1.556,0,0,1-1.552-1.551,1.557,1.557,0,0,1,1.552-1.552" transform="translate(-4722.822 4900.513)"/></g><g transform="translate(7671.803 2331.722)"><path class="o" d="M4741.641-4451.226h-17.264a1.556,1.556,0,0,1-1.551-1.551,1.556,1.556,0,0,1,1.551-1.552h17.264a1.556,1.556,0,0,1,1.552,1.552,1.556,1.556,0,0,1-1.552,1.551" transform="translate(-4722.825 4454.329)"/></g><g transform="translate(7634.505 2426.435)"><path class="g" d="M3498.116-1317c.588-.1,1.174-.2,1.764-.289q4.293-.674,8.548-1.6a143.826,143.826,0,0,1,16.976-2.81q.907-.086,1.818-.155c2.562-.193,5.246-.256,7.592.968s4.211,4.124,3.637,6.918a6.08,6.08,0,0,1-3.571,4.185,15.366,15.366,0,0,1-5.306,1l-17.5,1.178q-4.333.289-8.666.594c-2.758.191-5.559.581-8.325.578a5.547,5.547,0,0,1-3.459-1,7.877,7.877,0,0,1-2.322-5.2,3.171,3.171,0,0,1,.833-2.656,2.891,2.891,0,0,1,1.344-.492c2.217-.408,4.424-.834,6.642-1.213" transform="translate(-3489.284 1321.961)"/></g><g transform="translate(7612.347 2432.574)"><path class="j" d="M2780.905-1111.2c-1.411.291-2.514,1.53-3.918,1.945a4.823,4.823,0,0,1-3.038-.223c-.885-.332-1.785-.51-2.695-.8a5.385,5.385,0,0,0-2.426-.546c-1.995.415-3.984,1.835-5.792,2.756a2.1,2.1,0,0,1-1.3.336c-.448-.085-.822-.629-.567-1.007-.52.486-1.209,1.458-2.048,1.081a.7.7,0,0,1-.36-.933,2.843,2.843,0,0,1-.99.8.971.971,0,0,1-1.155-.269,1.155,1.155,0,0,1-.153-.577,4.359,4.359,0,0,1,.463-2.007c1.424-3.108,4.645-5.413,7.385-7.264a5.9,5.9,0,0,1,1.538-.831,5.4,5.4,0,0,1,1.555-.172,31,31,0,0,1,10.018,1.619,4.335,4.335,0,0,0,2.159-.1,3.368,3.368,0,0,1,1.554-.045,2.679,2.679,0,0,1,1.34,1.085,5.031,5.031,0,0,1,1.036,3.127c-.057.833-.12,1.732-1.1,1.907-.4.071-.806.027-1.208.069a2.956,2.956,0,0,0-.3.046" transform="translate(-2756.46 1118.914)"/></g></g></svg>