<svg xmlns="http://www.w3.org/2000/svg" width="14.7" height="16" viewBox="0 0 14.7 16"><defs><style>.a{fill:'#5773FF';}</style></defs><path class="a" d="M13.8,1.9V2a.1.1,0,0,1-.1.1.1.1,0,0,1-.1.1.1.1,0,0,0-.1.1L7.7,5.6H6.9L2.1,4.4H1.7c-.1,0-.1.1-.2.1l-.2.2c0,.1,0,.1-.1.2v.2l.1.2.2.2L6.1,8.1l.1.1c.1,0,.1.1.2.1,0,.1.1.1.1.2s.1.1.1.2v7l-.1.1s0,.1,0,.2H6.1L.4,12.7h0c-.1,0-.1-.1-.2-.2s-.1-.1-.1-.2,0-.1-.1-.2V4.9c0-.2.1-.3.1-.5s.2-.3.3-.5.4-.3.6-.4H1L6.6.2,6.8.1h.1L7,0h.6l5.9,1.5h.1a.1.1,0,0,1,.1.1.1.1,0,0,0,.1.1C13.8,1.8,13.8,1.9,13.8,1.9Zm.3,2.4c.1.1.2.1.3.2l.2.2c0,.1.1.2.1.3v7.1c0,.1,0,.1-.1.2,0,.1-.1.1-.1.2l-.2.2L8.6,16H8.4a.1.1,0,0,1-.1-.1L8,15.8v-7c0-.1,0-.1.1-.2,0-.1.1-.1.1-.2s.1-.1.2-.1l4.7-2.7a.1.1,0,0,0,.1-.1.1.1,0,0,1,.1-.1V5.2a.1.1,0,0,0-.1-.1c-.2-.1-.3-.1-.5-.2s-.3-.2-.5-.3a5.736,5.736,0,0,1-.7-.4l1.1-.6Z"/></svg>