<svg xmlns="http://www.w3.org/2000/svg" width="16.804" height="16" viewBox="0 0 16.804 16"><defs><style>.a{fill:gray;}</style></defs><path class="a" d="M227.222,976.686a6.374,6.374,0,0,0-2.814,5.146H222.8a8.162,8.162,0,0,1,3.3-6.271Zm9.246,5.548v4.422l1.608,1.608v.8H224.408v-.8l1.608-1.608v-4.422a5.217,5.217,0,0,1,1.126-3.216,4.686,4.686,0,0,1,2.894-1.849v-.563a1.209,1.209,0,0,1,.322-.884,1.1,1.1,0,0,1,.884-.322,1.209,1.209,0,0,1,.884.322,1.1,1.1,0,0,1,.322.884v.563a5.236,5.236,0,0,1,4.02,5.065Zm-3.618,7.638a1.35,1.35,0,0,1-.482,1.126,1.505,1.505,0,0,1-1.126.4,1.649,1.649,0,0,1-1.608-1.608h3.216Zm5.146-8.04a6.339,6.339,0,0,0-2.894-5.146l1.206-1.126a7.927,7.927,0,0,1,3.3,6.271Z" transform="translate(-222.8 -975.4)"/></svg>