<svg xmlns="http://www.w3.org/2000/svg" width="16" height="16" viewBox="0 0 16 16"><defs><style>.a{fill:gray;}</style></defs><path class="a" d="M535.611,917.911a.911.911,0,0,1,.889.889v3.111a.911.911,0,0,1-.889.889A15.175,15.175,0,0,1,520.5,907.689a.911.911,0,0,1,.889-.889H524.5a.911.911,0,0,1,.889.889,10.067,10.067,0,0,0,.533,3.2.972.972,0,0,1-.178.889l-1.956,1.956a13.368,13.368,0,0,0,5.867,5.867l1.956-1.956a.689.689,0,0,1,.889-.178A10.936,10.936,0,0,0,535.611,917.911Zm-.978-3.111a6.071,6.071,0,0,0-6.133-6.133v-1.778a8,8,0,0,1,5.689,2.311,7.509,7.509,0,0,1,2.311,5.689h-1.867Zm-3.556,0a2.734,2.734,0,0,0-2.667-2.667v-1.778a4.035,4.035,0,0,1,3.111,1.333,4.7,4.7,0,0,1,1.333,3.111Z" transform="translate(-520.5 -906.8)"/></svg>