<svg xmlns="http://www.w3.org/2000/svg" width="17.467" height="16" viewBox="0 0 17.467 16"><defs><style>.a{fill:'#F8B100';}</style></defs><g transform="translate(-1.56 -3.528)"><path class="a" d="M1.64,19.512l7.828,9.039L6.86,19.512Z" transform="translate(-0.05 -10.028)"/><path class="a" d="M17.21,19.512l2.9,10.045,2.9-10.045Z" transform="translate(-9.819 -10.028)"/><path class="a" d="M3.982,9.3,1.56,12.547H6.407Z" transform="translate(0 -3.622)"/><path class="a" d="M40.284,12.547,37.862,9.3,35.44,12.547Z" transform="translate(-21.257 -3.622)"/><path class="a" d="M11.63,11.573l2.63-3.521H9Z" transform="translate(-4.668 -2.838)"/><path class="a" d="M32.135,8.052H26.87L29.5,11.576Z" transform="translate(-15.88 -2.838)"/><path class="a" d="M23.1,11.763,20.332,8.052,17.56,11.763Z" transform="translate(-10.039 -2.838)"/><path class="a" d="M27.33,28.554l7.832-9.043h-5.22Z" transform="translate(-16.169 -10.028)"/><path class="a" d="M5.66,5.47,6,4.7l.629-.2L6,4.293,5.66,3.528l-.342.765L4.689,4.5l.629.2Z" transform="translate(-1.963 0)"/><path class="a" d="M3.893,9.827l.216-.481L4.5,9.219l-.395-.13L3.893,8.6l-.22.484-.395.13.395.127Z" transform="translate(-1.078 -3.185)"/><path class="a" d="M11.657,5.817l.171-.38.309-.1-.309-.1-.171-.384-.171.384-.313.1.313.1Z" transform="translate(-6.031 -0.831)"/></g></svg>