<svg xmlns="http://www.w3.org/2000/svg" width="16" height="16" viewBox="0 0 16 16"><defs><style>.a{fill:gray;}</style></defs><path class="a" d="M18.535,13H14.6A1.6,1.6,0,0,0,13,14.6v3.935a1.6,1.6,0,0,0,1.6,1.6h3.935a1.6,1.6,0,0,0,1.6-1.6V14.6A1.6,1.6,0,0,0,18.535,13Z" transform="translate(-4.135 -4.135)"/><path class="a" d="M55.6,20.135h3.935a1.6,1.6,0,0,0,1.6-1.6V14.6a1.6,1.6,0,0,0-1.6-1.6H55.6A1.6,1.6,0,0,0,54,14.6v3.935A1.6,1.6,0,0,0,55.6,20.135Z" transform="translate(-54 -4.135)"/><path class="a" d="M18.535,54H14.6A1.6,1.6,0,0,0,13,55.6v3.935a1.6,1.6,0,0,0,1.6,1.6h3.935a1.6,1.6,0,0,0,1.6-1.6V55.6A1.6,1.6,0,0,0,18.535,54Z" transform="translate(-4.135 -54)"/><path class="a" d="M57.568,61.135A3.568,3.568,0,1,0,54,57.568,3.571,3.571,0,0,0,57.568,61.135Zm0-6.27a2.7,2.7,0,1,1-2.7,2.7A2.7,2.7,0,0,1,57.568,54.865Z" transform="translate(-54 -54)"/></svg>