<svg xmlns="http://www.w3.org/2000/svg" width="16" height="16" viewBox="0 0 16 16"><defs><style>.a{fill:'#5773FF';}</style></defs><path class="a" d="M777.1,1149.4h2.64l.72,1.6H792.3a.841.841,0,0,1,.72,1.2l-2.88,5.2a1.485,1.485,0,0,1-1.36.8h-6l-.72,1.28v.08c0,.16.08.16.16.16h9.28v1.6h-9.6a1.64,1.64,0,0,1-1.6-1.6,2.335,2.335,0,0,1,.16-.72l1.12-2-2.88-6.08h-1.6v-1.52Zm3.76,13.28a1.547,1.547,0,1,1-.48,1.12A1.58,1.58,0,0,1,780.86,1162.68Zm8,0a1.547,1.547,0,1,1-.48,1.12A1.58,1.58,0,0,1,788.86,1162.68Z" transform="translate(-777.1 -1149.4)"/></svg>