<svg xmlns="http://www.w3.org/2000/svg" width="16" height="16" viewBox="0 0 16 16"><defs><style>.a{fill:none;}.b{fill:white;fill-rule:evenodd;}</style></defs><rect class="a" width="16" height="16"/><path class="b" d="M23.557,62.36c.388.28-2.605,13.349-2.808,13.48-.111.075-1.182-.6-3.64-2.446-.942-.709-.591-.691-2.864,1.568-.443.429-.443.429-.721-.355l-1.182-3.137c-.3-.784-.3-.784-1.016-1.158C9.145,69.194,8,68.671,8,68.484,8,68.036,23.113,62.043,23.557,62.36ZM13.709,72.554c-.185-.429-.554-1.531-.721-2.072-.185-.56-.185-.56,1.164-1.475,8.351-5.657,8.406-6.161,1.145.877-1.423,1.382-1.09.9-1.293,2.483-.037.243-.074.429-.129.411Q13.82,72.778,13.709,72.554Z" transform="translate(-7.852 -61.184)"/></svg>