<svg xmlns="http://www.w3.org/2000/svg" width="16" height="16" viewBox="0 0 16 16"><defs><style>.a{fill:#5773ff;}</style></defs><path class="a" d="M902.48,215.979H904v1.441h-1.52a6.553,6.553,0,0,1-5.792,5.766V224.7H895.24v-1.514a6.552,6.552,0,0,1-5.792-5.766H888v-1.441h1.52a6.552,6.552,0,0,1,5.792-5.766V208.7h1.448v1.513a6.262,6.262,0,0,1,3.91,1.874A6.123,6.123,0,0,1,902.48,215.979ZM892.416,220.3a4.764,4.764,0,0,0,3.548,1.441,4.99,4.99,0,1,0-5-4.973A4.721,4.721,0,0,0,892.416,220.3Zm1.52-5.622a2.778,2.778,0,1,1-.869,2.018A3.024,3.024,0,0,1,893.937,214.682Z" transform="translate(-888 -208.7)"/></svg>